<svg xmlns="http://www.w3.org/2000/svg" viewBox="0 0 736 736" role="img"><title>Café Prana</title><path fill="#e3ba90" d="M252.6 66.5h3.4c19.6 0 37.4 10.8 51.5 23.9A94 94 0 0 1 330 136l1.8-2c8.3-9.3 8.3-9.3 12.2-13l1.6-1.6a77 77 0 0 1 55-20.8A68 68 0 0 1 447 124a67 67 0 0 1 10.5 49.6A60 60 0 0 1 434 210c-19 12.3-41.8 18.5-63.5 24a264 264 0 0 0-49.4 16.7c-4.4 2.2-8 4.3-11.1 8.3-1.6 13.3 11.7 33.6 19 44 3.2 1.6 6.7 1.2 10.3 1.2l5.2.1h2.8q29 .5 57.7 2.7l3 .2a489 489 0 0 1 72 11.8l2.1.5c17.7 4 34.5 11.4 50.7 19.4l6.6 3.2c14.8 7.1 30.6 16.2 37.6 31.9q1.4 4.4 2 9c3.3 0 4.6-.7 7.5-2.1a183 183 0 0 1 34.6-11.2l2-.5c24.1-5.5 51.5-3.9 72.8 9.4 21.6 14 30.7 36.2 36.1 60.4 1.2 7 1.2 14 1.2 21l.1 6.1q.1 36.2-25.3 61.9a99 99 0 0 1-22 16l-2.5 1.4a106 106 0 0 1-46.5 13l-2.2.1c-3.6 0-5.6-.4-8.7-2.4-2.8-2.9-3.3-4.5-3.4-8.4 0-3.3.3-4.6 2-7.6 5-4.4 11.4-4.6 17.7-5.4 21.3-3 43.5-11.5 57-29 11.6-17 14.3-37 11.4-57l-.5-2.7q-1.6-11.2-5.3-22l-.8-2.7a46 46 0 0 0-24-26.7c-22.4-10.2-47.5-5.2-70.2 1.4l-4 1.2-3 .8a349 349 0 0 0 5.8 26.6C621.9 478.2 610 534.2 584 582l-1.3 2.4A260 260 0 0 1 554 626l-1.3 1.6c-18.3 21.7-18.3 21.7-26.5 28.5q-4 3.5-7.7 7c-7 6.6-14.7 12.3-22.5 17.9l-1.9 1.3C461 705.8 423.4 718.6 384 727l-3.5.8a216 216 0 0 1-29.3 3.9l-2.5.2C259.4 738.7 168 713.3 99.1 655A222 222 0 0 1 69 624.5q-2.8-3.5-5.8-6.6a200 200 0 0 1-26.6-39.3C11.5 535.3-7.3 477.4 6 427l.6-2.4c8.6-32.5 25.8-64 55.5-81.4a109 109 0 0 1 50.9-14.4l3.6-.1a19 19 0 0 1 9.4 3.3l1.8 2.3c2 2 2 2 4 1.5l2.3-.5 2.4-.6 19.8-5.6a550 550 0 0 1 132.9-22.9q7.5-.3 14.8-1.2l-.8-1.7-3.4-7.7-1.2-2.7-4.7-10.3c-2.3-5-3.7-9.6-4.7-15A69 69 0 0 0 272 237l-1.5-2c-2.4-2.9-2.4-2.9-5.5-5v-2l-1.6-.7c-3.1-1.7-5.5-4-8-6.4q-6.7-6.2-14-12a218 218 0 0 1-10-8.7l-6.5-5.8C209.5 181 195.7 164 193 143c-1-21 0-40.4 13-57.7a60 60 0 0 1 46.6-18.8"/><path fill="#fefefe" d="M577 391c3 3.4 4 6.7 5.3 11l.7 2.1 2.6 9C596 449 598.5 486 587 522l-.6 2q-3.3 10.4-7.4 20.6-2.6 6.6-5 13.4h-2l-.9 2.6-3.1 9.4h-2l-.6 2.4c-1.6 4.2-4 7.3-6.6 11Q555 589 552 595h-2l-.8 2.3a16 16 0 0 1-4.2 5.7l-.7 2.3a14 14 0 0 1-5 5.9 48 48 0 0 0-9.6 11.4c-2 3-4.5 5-7.3 7.2-1.6 1.2-1.6 1.2-2.4 3.2h-2l-.8 1.8a15 15 0 0 1-4.6 5.1 31 31 0 0 0-5.6 5.7c-3.4 4.1-8.2 6.1-13 8.4v2l-4 1v2h-2v2l-3.8 2.6-2.4 1.4-2.6 1.6-2.4 1.5c-6.8 4.1-6.8 4.1-10.8 4.9v2l-8.1 4.5a14 14 0 0 1-7.9 2.5v2q-13.7 5.3-27.7 9.8c-3.3 1.1-3.3 1.1-6.6 2.8a12 12 0 0 1-7.7 1.4v2l-2.4.5-10.9 2.3-3.7.8q-10.2 2.2-20.3 4.7a197 197 0 0 1-47 3.9h-9.5q-14.7.2-29.4-1l-2.4-.3c-4.4-.5-8.2-1.4-12.4-2.9l-7.5-1.5-2.1-.4-13.4-2a212 212 0 0 1-36.8-9.5l-3.4-1.2q-9.4-3-18.4-7.3-3.6-1.6-7.3-3A183 183 0 0 1 164 675v-2l-2.3-.6c-11.5-4.3-21.4-11.7-31.3-18.7q-3.3-2.4-6.7-4.3c-3.4-2.1-6-4.5-8.7-7.4l-6.1-5.4c-3.4-3-3.4-3-4.9-4.6v-2h-2l-1-2-2.1-1.1a35 35 0 0 1-8-7.6l-6.3-7.1C73.2 599.6 73.2 599.6 71 593l-3-1c-1.4-2.1-1.4-2.1-3-5l-5.7-8.7q-3.5-5.5-6.3-11.3l-5-9.6-1.3-2.5q-2.5-5-5.4-9.6a35 35 0 0 1-3.2-8.2 192 192 0 0 0-4.5-13.7q-3.6-10.2-6-21L27 500l-.5-2.3C26 496 26 496 25 495c-5-30.9-3-62 9-91h4l5 15h2l1 5h2l1.8 2.8c2 3.3 2 3.3 5 4.6 3.1 1.6 4.2 2.6 6.4 5.2 17.6 21.1 46.7 33.2 72.7 39.9l7.1 2a292 292 0 0 0 50.8 8.3l6.6.7c19.5 2.3 39.1 1.9 58.7 1.9h9.2c30.6 0 61-.8 91.4-4.2l10.6-1a590 590 0 0 0 59.6-9.8l2.2-.4q10.6-1.9 20.9-5.3 4.3-1.4 8.8-2.2a209 209 0 0 0 65.6-29q6-4 12.6-6.5a99 99 0 0 0 21-14l2.6-2a58 58 0 0 0 15.4-24"/><path fill="#98c0b4" d="M252.6 66.5h3.4c19.6 0 37.4 10.8 51.5 23.9A94 94 0 0 1 330 136l1.8-2c8.3-9.3 8.3-9.3 12.2-13l1.6-1.6a77 77 0 0 1 55-20.8A68 68 0 0 1 447 124a67 67 0 0 1 10.5 49.6A60 60 0 0 1 434 210c-19 12.3-41.8 18.5-63.5 24-32.1 7.8-32.1 7.8-60.5 24-2.3-.2-2.3-.2-4-1l-.8 1.8a18 18 0 0 1-4.2 5.2l-2 2.1c-2 1.9-2 1.9-4 2.9l-.4 2.4c-.6 2.6-.6 2.6-3.6 4.6l-.6-3.3A75 75 0 0 0 272 237l-1.5-2c-2.4-2.9-2.4-2.9-5.5-5v-2l-1.6-.7c-3.1-1.7-5.5-4-8-6.4q-6.7-6.2-14-12a218 218 0 0 1-10-8.7l-6.5-5.8C209.5 181 195.7 164 193 143c-1-21 0-40.4 13-57.7a60 60 0 0 1 46.6-18.8"/><path fill="#e0b88f" d="M706 386c19.7 19.9 27.2 46.7 27.2 74l.1 6.1q.1 36.2-25.3 61.9a99 99 0 0 1-22 16l-2.5 1.4a106 106 0 0 1-46.5 13l-2.2.1c-3.6 0-5.6-.4-8.7-2.4-2.8-2.9-3.3-4.5-3.4-8.4 0-3.3.3-4.6 2-7.6 5-4.4 11.4-4.6 17.7-5.4 21.3-3 43.5-11.5 57-29 11.6-17 14.3-37 11.4-57l-.5-2.7q-1.6-11.2-5.3-22l-.8-2.7a46 46 0 0 0-24-26.7c-22.4-10.2-47.5-5.2-70.2 1.4l-4 1.2-3 .8a349 349 0 0 0 5.8 26.6C621.9 478.2 610 534.2 584 582l-1.3 2.4A260 260 0 0 1 554 626l-1.3 1.6c-18.3 21.7-18.3 21.7-26.5 28.5q-4 3.5-7.7 7c-7 6.6-14.7 12.3-22.5 17.9l-1.9 1.3C461 705.8 423.4 718.6 384 727l-3.5.8a216 216 0 0 1-29.3 3.9l-2.5.2C259.4 738.7 168 713.3 99.1 655A222 222 0 0 1 69 624.5q-2.8-3.5-5.8-6.6a199 199 0 0 1-26.8-39.5l-5-8.6-1.6-2.8a29 29 0 0 1-3.8-19h2l2 7h2l-1-3.3c-1-3.7-1-3.7 0-6.7h2l-1-9h3l1 2h2l1 5 3 1 4 7 1 2.1 3 5.9 1.3 2.6 4.1 8.5q2.4 4.2 5.3 8.1 3.7 5.5 6.7 11.4a16 16 0 0 0 4 4.7q3.6 3.9 6.7 8.3 6.3 8.2 13.4 15.7c2.5 2.7 2.5 2.7 4.7 5.5a12 12 0 0 0 5.8 4.2v2h2v2l3 1 2.8 3.3q3 3.8 7 6.5l3.2 2.2v2l2 .6c3.4 1.6 6.1 3.6 9 6q3.4 2.4 7 4.4l2.2 1.9q4.5 3.3 9.7 5.6 7.2 3.4 14.1 7.5v2l2.6.8q6.3 2.4 12.2 5.7 4.5 2 9.1 3.7l6.2 2.4c20 8 40.4 14.5 62 16.9 17.6 2.2 17.6 2.2 19.9 4.5 13.7 2 27.3 2.3 41.1 2.3h9.4c21.7 0 42-3.4 63-8.6A88 88 0 0 1 408 700v-2l2-.6q6.9-2 13.7-4.5l13-4.6c3.3-1.2 3.3-1.2 6.5-3 2.8-1.3 2.8-1.3 6.8-1.3v-2l8.8-4.5c5-2.5 5-2.5 7.2-2.5v-2l2-1.1q8.5-4.4 16.2-9.8c1.8-1.1 1.8-1.1 3.8-1.1v-2h2v-2l4-1v-2l3.7-3 2.2-1.6c2.1-1.4 2.1-1.4 4.7-2.8 3.8-2.5 6.4-6.1 9.4-9.6 2.3-2.5 2.3-2.5 4-4h2l2-4h2l.8-1.7c1.4-2.6 3.1-4.2 5.2-6.3l3.5-4.5q3.3-4.6 7.5-8.5h2l.7-2.6q2.1-5.8 6.3-10.4h2l.8-2.1q2.2-4.8 5-9.3 4.3-6.7 8.2-13.6h2l.3-2.6c.7-3.6 2-6.2 3.7-9.4h2l.3-2.6c.7-3.4.7-3.4 2.1-6.2q2.3-4.5 3.5-9.4 2.3-7.5 5-14.9c13.8-39 9.6-79.3-2.4-118q-3.6-11.2-5.5-22.9l2.4-.4c2.7-.6 4.7-1.5 7.2-2.8 11-5 22.8-8.3 34.5-11.1l2-.5c29-6.6 59.8-2.6 82.9 16.8"/><path fill="#f7d7bd" d="M346 326a863 863 0 0 1 68.2 3.5 348 348 0 0 1 73.8 13l6 1.4a57 57 0 0 1 15.8 7 61 61 0 0 1 28.1 26.4 29 29 0 0 1-.1 19.6q-2.2 3.7-4.8 7.1l-1.6 2.3-1.4 1.7h-2l-.7 1.9c-1.5 2.5-2.7 3-5.3 4.1v2c-1.7 1.5-1.7 1.5-3.9 3.1l-2.2 1.7C514 422 514 422 512 422v2l-6 2v2a510 510 0 0 1-18.7 9c-2.3 1-2.3 1-5.3 1v2l-8 1v2l-1.8.5q-6.7 1.9-13 4.6c-4.8 2-9.4 2.7-14.5 3.4-3.5.6-6.4 2-9.7 3.5-9 2.4-18 3.7-27.2 4.8q-6.9.9-13.4 2.7c-7.6 2-15.3 2.7-23.1 3.6l-2.4.2a780 780 0 0 1-51.4 3.8q-25.5 1.3-51 1h-4c-27.4 0-54.2-1-81.3-5.2q-7.8-1.2-15.6-1.8c-10.1-1-19.8-3.6-29.6-6.1v-2l-2.4.3c-4.1-.3-7-1.5-10.9-3.1q-4.2-1.9-8.6-3.4l-2.8-1-5.3-1.8v-2l-2.2-.3c-3-.8-4.8-1.8-7.4-3.6A55 55 0 0 0 88 436v-2h-2v-2l-1.7-.2c-3.2-1.1-4.3-3-6.4-5.6l-2-2.6c-4.9-6.8-4.9-6.8-4.9-9.6h-2c-3-5.8-3.4-10.4-3.2-16.8v-2.6c0-6.3 0-6.3 1.2-8.6h2l.3-2a31 31 0 0 1 9.7-16l.9-2c3.7-6.8 13.9-10.9 21.1-13h3v-2l3.5-.4 4.7-.5 2.3-.2c4.2-.5 7.7-1 11.5-2.9v-3l4-4 2-2 2 1 1-3 4 1c-1 2-1 2-4 4l-5 5-5 5-2.7 2.8C120 356 120 356 118 356l-.3 1.9c-.7 2.1-.7 2.1-3.7 4.1-4.3 10-5 24.6-1.9 35a50 50 0 0 0 12.6 17.6c1.3 1.4 1.3 1.4 1.3 3.4l1.7.8q3.6 2 6.8 4.4c12.7 9 26.9 13.3 41.5 17.8v2l2.2.3q9.8 1.4 19.5 3.3 9 1.6 18.3 2.4v2l4 .2 5.3.2 2.5.2q6.9.3 13.8 1 9.3.6 18.8.6h18.3c31.6.3 31.6.3 62.9-3.7 4.1-.8 8.3-1 12.5-1.4q13.1-1.1 26-4.6l12.6-2.9c2.2-.4 2.2-.4 3.3-1.6l3.3-.2c5-.6 9-2.5 13.5-4.5q6.2-2.4 12.8-3.6c2.6-.5 2.6-.5 4.4-2.7l3.1-.8c3.9-1 6.8-2.9 10-5q3.3-2 6.9-3.2v-2l2.2-.7c3.3-1.6 5.2-3.7 7.8-6.3l2.2-1c2.4-1.3 2.7-2.6 3.8-5 1.5-2.2 1.5-2.2 3-4h2l1-3.8q.8-3.7 2-7.2a28 28 0 0 0-4-19v-2h-2l-2-3-5-3-5.2-3a76 76 0 0 0-27.8-8v-2l-7.4-1-2.1-.2-8.6-1c-6.6-.9-13.3-1-20-1.3-15.7-.5-15.7-.5-23.3-1l-3.7-.2c-6.3-.6-6.3-.6-8.7-3.5l-1.8-2.7c-2.3-3.6-2.3-3.6-5.1-6.7-1.3-1.4-1.3-1.4-1.3-5.4"/><path fill="#bc855f" d="M277.1 536.8c12.1-.4 22.8 2 32.7 9.1 3 1.5 4.2 1.1 7.2.1q2.8-1.4 5.4-3a60 60 0 0 1 47.6-3v2l2.5.6q6.4 2.7 11.5 7.4v2l4 2v2l3 1a47 47 0 0 1 3.6 5.6l1.8 3.1c3.6 7.4 4 14 4 22.1v3.1c0 8.9-1.5 16.6-6.2 24.2q-2.1 3.6-4 7.3a83 83 0 0 1-12 16.7A101 101 0 0 1 350 659l-2.1 1.2c-10.8 5.5-22.4 5.4-34.2 5.4h-2.4A78 78 0 0 1 257 644a86 86 0 0 1-24.5-60.7 44 44 0 0 1 13.4-31.5 44 44 0 0 1 24-14.7z"/><path fill="#f7d7bd" d="M310 325.7h8c2.5.4 3.4 1.3 5 3.3l1.3 2.3c1.9 3 4 5.4 6.5 8 1.2 1.7 1.2 1.7 1.2 4.7h-2.2c-31.2 1-31.2 1-62.1 5q-5.8 1.2-11.7 1v2l-2.5.6q-9 1.8-17.6 4.8c-1.9.6-1.9.6-5.9.6v2l-2.4 1.9a12 12 0 0 0-4.6 6.1h-2a47 47 0 0 0 0 16l3 1 .4 2 .6 2c2.2 1 2.2 1 5 2l1.8.7c11.7 4.5 22.7 6.5 35.2 7.3l2.3.2a489 489 0 0 0 72.8-.5l2.4-.2c8.2-.6 15.8-1.4 23.5-4.5v-2l2.4-1.9c4.1-3.8 4-9.8 4.6-15.1h-2l-1-9h-2v-3q15-.3 30 1v2l3 .1c17.7 1 34 2.7 49 12.9l2.3 1.5c1.7 1.5 1.7 1.5 2 4.2l-.3 2.3h-2l-.7 2.4c-1.5 3-2.3 3.5-5.3 4.6v2c-5.4 4-5.4 4-8 4v2l-6 2v2l-2.5 1c-12.1 4.5-12.1 4.5-24 9.6a50 50 0 0 1-10.9 2.9q-6.4 1.4-12.6 3.5a83 83 0 0 1-19.1 3.7q-6.4.8-12.6 2.5l-3.3.8-1.9.5a118 118 0 0 1-22.2 2.6l-2.2.2a576 576 0 0 1-109.9-2.7A196 196 0 0 1 187 426v-2l-2.1-.4A206 206 0 0 1 168 420v-2l-2.3-.4c-2.7-.6-2.7-.6-5.7-1.6v-2l-2.4-.2c-7.2-1.6-13.9-5-18.6-10.8v-2l-3-1c-1.6-1.7-1.6-1.7-3.1-3.9l-1.6-2c-2.5-4-2.4-7.3-2.4-11.8v-3.6l.1-2.7h2l.4-1.7q1-3.3 2.6-6.3h2v-2l5.1-3.6c2.1-1.5 2.1-1.5 4.2-4 3.3-3 6.2-3.6 10.4-4.7 3.4-1 6.1-2.9 9-5 6-3.7 11.5-4.5 18.6-5.1 3.4-.6 6.1-1.5 9.3-2.8 5.4-1.8 11-2.7 16.7-3.8l11.2-2.2 9.6-2.4a98 98 0 0 1 18.5-2.5l9.2-.7c2.2 0 2.2 0 4.2-1.2l6.8-.5 2-.2 6.8-.4 2.3-.1q15-1 30-1.1"/><path fill="#deb68b" d="m416.1 58.8 3.8-.1c11.6 0 22.7 1.6 33.3 6.5l2 1a109 109 0 0 1 55.1 61.4c6.4 19.2 6.8 39 .7 58.4l-.6 2a110 110 0 0 1-22.4 39l-2.1 2.6c-24.4 28.1-61 37.6-96.6 41.4a53 53 0 0 0-37 18.4c-2.5 3-3.1 3.5-7 4.7-4.8-.2-7-1-10.7-4.3-1.6-2.8-1.6-2.8-1.7-6.1C336.5 271.2 347 263 358 257c13.2-7.2 29.3-9.1 44-11.1 27.8-4 54.6-11.8 72.5-35a88 88 0 0 0 18.2-63.2 84 84 0 0 0-32.2-54.3c-18.7-12.5-41-14.7-62.8-11.2q-8 1.9-16 4.7c-12.2 4.1-12.2 4.1-17.5 2-2.6-2.2-4-3.7-5.2-6.9-.1-4 0-6.4 2.1-9.7 12.6-12.5 38.6-13.5 55-13.5"/><path fill="#dcb489" d="m247.6 10.8 3.7-.1c21.2-.1 37 9.2 52.1 23.2a35 35 0 0 1 10.8 22c-.4 3.5-2 5.6-4.2 8.1a16 16 0 0 1-10 1c-4-2.8-5.9-6.3-8.4-10.4a45 45 0 0 0-28.9-20.8q-7.5-1.3-15-1.1h-2.8A61 61 0 0 0 225 36l-3 1a84 84 0 0 0-48 49l-1.2 3.2c-8.2 26.6-2.9 57.4 9.8 81.6q7.5 13.4 18 24.7 2.9 3 5.5 6.1a239 239 0 0 0 17.3 17.8l15 14.8 2.3 2.3 2.1 2.1 1.9 1.8c1.3 1.6 1.3 1.6 1.3 3.6h2l2.8 3.2a114 114 0 0 0 12.4 13l2.1 2a9 9 0 0 1 3 6.6c-.4 4.5-2.1 6-5.3 9.2-3.6 1.8-7.2 1.1-11 0q-4.8-3.4-8.8-7.9l-2.3-2.4-12.5-12.8-4.8-4.9-2.3-2.3-4-4.1C216 242 216 242 216 240l-3-1-3.6-4.4q-2.7-2.9-5.8-5.2-3.6-3.3-6.6-7.1-3.4-3.9-7.2-7.3a141 141 0 0 1-42-96.6q.4-40 25.2-71.4l2.1-2.7a95 95 0 0 1 72.5-33.5"/><path fill="#e1b78d" d="M304 561v2l2.2.7A40 40 0 0 1 323 580l1.3 2c2.7 4 4.3 7 4.7 12h2c4.6 10.5 6 22.2 3 33.4q-1.2 3.4-3 6.6h-2l-1 4h-2l-.6 1.8c-2 3.1-4.1 4.4-7.4 6.2-3.8.7-3.8.7-7 1l-1 1a45 45 0 0 1-32-9v-2l-2.2-.7a22 22 0 0 1-7.8-6.3l-1-3h-2c-1.3-1.5-1.3-1.5-2.6-3.4l-1.4-1.9c-1-1.7-1-1.7-1-3.7h-2a68 68 0 0 1-7.3-18.1l-.5-2c-3-12.3.2-21.3 6-32 10.5-17 33.1-13 47.8-4.9"/><path fill="#dcb58a" d="M137 169c6 5.6 6 5.6 7 9 0 3.8-.8 5.7-3 8.9a13 13 0 0 1-9.6 2.7c-3.7-.9-6.5-3-9.8-5-10-6-22.1-7.7-33.4-4.9-5 2-8.5 4.6-11.2 9.3a25 25 0 0 0 2 19l4 5v2l1.8.8q3.2 1.8 6 4a85 85 0 0 0 33.8 10.8c31.3 5.3 68.1 13.3 88.2 40.5 3.7 5.5 5.1 9.2 4.2 15.9a15 15 0 0 1-6 5c-3.8.4-6.2.5-9.5-1.5q-3-3-5.7-6.2c-17.5-20.1-39.8-25.2-65.2-29.8-23.5-4.3-51.5-10-66.7-30.3A50 50 0 0 1 55 190c2.3-10.7 9-19.8 18-26 20.9-12.5 44.4-7.9 64 5"/><path fill="#e1b78b" d="M555 193a45 45 0 0 1 21 25 56 56 0 0 1-8 42 68 68 0 0 1-40 27c-10.1 1.3-20.3 1-30.5.9-16.8-.2-33.2.3-49.9 2.4-14.4 1.9-14.4 1.9-20.6-2.3a21 21 0 0 1-.3-12.6c2.6-4.8 8.3-5.9 13.3-7.4q6.1-1 12.4-1.3l3.5-.2q22.2-1 44.5-1h14.5a42 42 0 0 0 30.3-11.5c7-7.3 10-14.1 10.3-24.2-.2-5.8-.7-9.3-4.5-13.8a35 35 0 0 0-16.8-4.2c-4-1-5-2.4-7.2-5.8-1.7-3.5-1-7.3 0-11 7.4-7.8 19-5.9 28-2"/><path fill="#e0b68b" d="M349.8 554.7h2.7c4.9 0 9 .4 13.5 2.3v2l2.2.7a24 24 0 0 1 8 6.5l2.6 2.8c4.2 5.7 4.5 11.6 4.4 18.4v2.2A55 55 0 0 1 366 627q-5.8 5.2-12 10l-2.7 2.4-2.3 1.6-3-1 1-3a56 56 0 0 0 2-37v-6l4.4-2 2.4-1.1c2.2-.9 2.2-.9 4.2-.9l1-4h2l-3-10c-7.7-.3-7.7-.3-15 2l-4 1-6.2-9.2C333 567 333 567 333 565h-2v-2l-3-1c.2-1.9.2-1.9 1-4a41 41 0 0 1 20.8-3.3"/><path fill="#f5d6ba" d="M347 362c3 5.8 3 5.8 3 8h2v4h2v5c-14.3 5.4-32.6 3.2-47.6 3.2l-11.4.1c-13.3 0-26-.5-39-3.3l-7.1-1.2-4.9-.8v-4l3.9-.4c3.4-.3 3.4-.3 6.1-2.6q5.7-1.3 11.6-1.9l3.8-.5a844 844 0 0 1 41.5-4.1c12-1 24-1.8 36.1-1.5"/><path fill="#f7d8bd" d="m532 341 11.8 4a64 64 0 0 1 30.5 23.7c3.2 4.9 3.4 9.6 3.7 15.3l.6 5.6.4 4.4-2-1-1 2.9a65 65 0 0 1-21.7 26.2l-2.1 1.6A55 55 0 0 1 532 434l2-4h2v-2c1.6-1.6 1.6-1.6 3.8-3.3a28 28 0 0 0 7.2-8.7h2l.8-2.2 5-11c4.5-10.8 2.5-23.8.2-34.8h-2l-2-3.9-1.1-2.2c-.9-1.9-.9-1.9-.9-3.9h-2c-3-3.5-3-3.5-3-6h-3l-1.7-3.3c-1.9-3.4-3.8-5-7.3-6.7z"/><path fill="#be8760" d="M280 575q3.1 1.6 6 3.6 2.8 1.9 5.6 3.3c3.5 2.2 5.5 4.3 8 7.4 1.5 1.9 1.5 1.9 4 3.7a26 26 0 0 1 9.4 17h2c2.5 3.7 2.6 7.7 2 12-2.1 4.6-2.1 4.6-5 6-6.1.6-6.1.6-9.1-1.4-3.3-4.6-5.6-9.8-8-15A45 45 0 0 0 282 597l-1.6-1.6c-1.5-1.7-1.5-1.7-4.8-2.8-3.6-1.6-5.5-2.4-7.6-5.6-.8-4-.6-7 1.5-10.5 3.5-2.1 6.6-2.3 10.5-1.5"/><path fill="#caa881" d="m416.1 58.8 3.8-.1a76 76 0 0 1 33.5 6.7l2 1A99 99 0 0 1 468 73c1 3.3 1 3.3 1 6l-3 1-2.2-2.4c-2.9-2.7-4-3.2-7.8-3.6l-2-1v-2h-9l1-3-1.9-.4C442 67 442 67 440 66v-2l-6-1v-2l-2 .5a93 93 0 0 1-11.6 1l-2.4.2-26 1.3v2h-9l-1-3 5.5-1.4 3-.8c8.6-2 17-2 25.6-2"/><path fill="#cea87b" d="M612 454c2.5 5 2.3 8.6 2.3 14.1v3.1c-.4 27.2-6.1 53.3-15.3 78.8l-3-1 1-2v-5.8q.1-4.7 1-9.2l3-1-.7-3.8c-.4-2.2-.4-2.2-.3-4.2l3-3c.5-2.3.5-2.3.6-4.8q.4-5.7 1.4-11.2h2v-7l4-1z"/><path fill="#f8d7bd" d="M47 382h1v2.5l-.4 15A47 47 0 0 0 56 430v2c-3.9-1.3-5.9-2.5-8-6v-2h-2l-1-5h-2a45 45 0 0 1-5-15h-3a41 41 0 0 1 5.4-11.6l5.3-8.2z"/><path fill="#cba877" d="M668 368a73 73 0 0 1 45 26l2 2.6 2 2.6 2 2.4c1 2.4 1 2.4.2 5.2L718 409c-1.9-.6-1.9-.6-4-2l-2-7-3-1c-1.7-1.4-1.7-1.4-3-3v-3h-2l-.7-1.8c-1.7-2.8-3.5-3.7-6.3-5.2l-3-2v-2q-6.5-2.5-13.4-4c-5.1-1-9.8-3-14.6-5v-2l2-1z"/><path fill="#ceae88" d="m378 64 2 3c-1.6 2-1.6 2-4 4-3.2.3-3.2.3-6 0l-.9 1.8L366 79l3 2-3 2v2c5 1.1 7.7 1 12.6-1 19.1-7.6 19.1-7.6 27.4-5l2 1v1l-2.4.2c-8.4 1-15.9 3-23.8 5.7-12.3 4.1-12.3 4.1-17.6 2-2.6-2.2-4-3.7-5.2-6.9-.1-4-.1-6.5 2.3-9.7A40 40 0 0 1 378 64"/><path fill="#d5ad80" d="M729 433c5.6 5.6 4.3 18 4.3 25.4v8c0 13-2.5 24.6-7.3 36.6l-1-3h-2l2-7.2q1.3-5.3 1.8-10.6c.2-2.2.2-2.2.7-4.4.7-4.2.6-8.3.6-12.6v-2.7l-.1-6.5h-1c-.3-7.4-.3-7.4 1-10.4 1.6-4 1.2-8.2 1-12.6"/><path fill="#d3ad84" d="M307 296c2 1 2 1 4 3 .3 3.7.3 3.7 0 7l-3 1c-.7 2-.7 2-1 4l-8.6.6-2.4.1q-5.4.6-11-.2c-3-.8-3-.8-5 .5l-4.8.1h-8.8l-7.4-.1 1-3c7.1-3.6 18-2.3 25.8-2.6q9-.4 18.2-1.4l-3-8 5 1z"/><path fill="#dbb183" d="M248.3 10.6h3.5c10.4 0 19.8 2 29.2 6.4l-1 3h-8v-2l-2.2.1c-3-.1-5-1-7.8-2.1-10.3-1.8-27-3.9-36.2 2l-1.8 2c-2.4-.8-2.4-.8-5-2l-1-3a89 89 0 0 1 30.3-4.4"/><path fill="#d9b182" d="M257 310v3c-3.3 2.2-4.8 2.4-8.7 2.6l-3 .3-2.3.1v2l-2.2-.6a21 21 0 0 0-9.6 1.1q-3.6.8-7.2.6h-8.8l-7.2-.1v-3c43.6-7.8 43.6-7.8 49-6"/><path fill="#d4ac81" d="M575 218h1a57 57 0 0 1-8 42l-2 1c-1-2-1-2-2-5 1.4-2.6 1.4-2.6 3-5 1.2-2.4 1-3.7 1-6.3q-.1-5 1-9.7h2v-15h3z"/><path fill="#d5b189" d="M357 305a383 383 0 0 1 36.4 1.2q11.3.7 22.6 1.8l-1 3h-3l-23.2-.1h-2.2c-3.3 0-6.4 0-9.6 1.1v-2h-1.8l-2.4.1-2.4.1c-2.6-.2-4.1-1-6.4-2.2l-7-2z"/><path fill="#dcb181" d="M651.2 366.8h8.5c2.5.2 4.1 1 6.3 2.2l-1.9.4-2.5.5-2.4.5c-2.4.5-2.4.5-4.2 2.6l-6 2-1-3-2 .4-2.7.6-2.6.6q-3.8.5-7.7.4l-3 1-2-1v-2l-8-1c8.8-5 21.4-4.2 31.2-4.2"/><path fill="#d4b183" d="M85 335c-2 2-2 2-4.6 2.1L78 337v2h5c-6.4 5-6.4 5-11 5v2l-6 1v2l-1.6.3c-3.3 1-5.6 2.8-8.4 4.7l-3.4 2.3L50 358l-2-1-3-1a118 118 0 0 1 31.2-19.6l2-.8c4.5-1.7 4.5-1.7 6.8-.6"/><path fill="#d5af7f" d="m620 372 3.8 1 3.2 1-1 2h-9l-1 2-7.7 2a85 85 0 0 0-13.3 4h-2.6c-2.5-.2-2.5-.2-4.5 1.6-1.9 1.4-1.9 1.4-4.1 1l-1.8-.6q4.7-3 10-5l-2-2 8.5-2.9 2.4-.8c14.3-4.8 14.3-4.8 19.1-3.3"/><path fill="#c2a376" d="M472.5 265.9h31.3l20.2.1 2 4-6 1v-2h-2l-40.8.2h-5.8c-2.6-.2-4.2-.9-6.4-2.2 2.6-1.3 4.5-1.1 7.5-1.1"/><path fill="#c9a77b" d="M205 317c-.3 2.4-.3 2.4-1 5-3 2-3 2-6 2v2h-9v2l-14-1-1-3 22.5-5.5 3.6-.9c2.9-.6 2.9-.6 4.9-.6"/><path fill="#d4b386" d="M123 331v3h2l-1 2h-3v-2c-5.9-.2-11 .2-16.7 1.7-2.5.3-4 0-6.3-.7l-2.5.5c-2.6.5-4 .3-6.5-.5l3-1-2-2c26-5.7 26-5.7 33-1"/><path fill="#d1af83" d="M453 65q4 1.5 8 3.7l2 1c2 1 2 1 5 3.3 1 3.3 1 3.3 1 6l-3 1-2.2-2.4c-2.9-2.7-4-3.2-7.8-3.6l-2-1v-2h-9l1-3-4-1v-2c3.7-1.8 7.2-1 11 0"/><path fill="#e0b88f" d="M644 536a12 12 0 0 1-7.6 4.4c-3.7 1-3.7 1-6 4.2-.6 2.4-.6 2.4.6 4.4l-1 3 4 1-6 1-2-5-1 5c-2.4-2.4-2.3-3-2.4-6.3.1-3.3.4-4.7 2-7.6 5-4.3 13.2-6.2 19.4-4.1"/><path fill="#dbae7c" d="m182 63 1 2 2 1-1.6 2.4C179 75.4 175.6 82 173 90q-1.2 3.7-3 7v-4h-2c.7-8.4 1.5-16.1 8-22l1.6-3.1C179 65 179 65 182 63"/><path fill="#d1ae83" d="M430 243c-.6 2-.6 2-2 4-3.2.5-3.2.5-7 .6-5-.2-5-.2-9 2.4-2.4.3-2.4.3-5.3.4l-3.2.2h-3.3l-3.3.2c-4.9.2-9.2.3-13.9-.8v-1l33.2-5.6 2.8-.4 2.6-.5 2.3-.4c2.3-.1 4 .2 6.1.9"/><path fill="#e5cdb4" d="M488 659h2c-.2 1.9-.2 1.9-1 4l-1.7.8c-2.6 1.4-3.1 2.3-4.6 4.8-2.1 3.2-2.4 3.3-6.4 4.2l-3.3.2-1 2c-2.9 1.4-4.8 2-8 2v2c-3.5 2.5-7 3.7-11 5l-3 1.6c-3.3 1.6-6.3 2-10 2.4 1-2 1-2 3.3-3.1 2.7-.9 2.7-.9 6.7-.9v-2l8.8-4.5c5-2.5 5-2.5 7.2-2.5v-2l2-1.1q8.5-4.4 16.2-9.8c1.8-1.1 1.8-1.1 3.8-1.1z"/><path fill="#dbb48b" d="M715 441h2c0 6.7.2 13.3-.6 20-.4 4.2-.2 7.8.6 12l-2 1v-2h-2l1.6 2.8c1.4 3.2 1.4 3.2.4 6.2h-2v-3l-2-1 .5-3.4c1-8.3.4-16.5-.4-25-.1-2.6-.1-2.6.9-4.6h2z"/><path fill="#d2b790" d="M695 379c9.7 3.2 16.1 12.3 22 20.2l2 2.4c1 2.4 1 2.4.2 5.2L718 409c-1.9-.6-1.9-.6-4-2l-2-7-3-1c-1.7-1.4-1.7-1.4-3-3v-3h-2l-.7-2.8c-1.4-3.4-2.4-4.2-5.3-6.2v-2l-3-1z"/><path fill="#d6b386" d="M555 193a81 81 0 0 1 8 5l-2 1 1 3h-2l-1-2-6-1-2-1-7-1 1-2-11-1v-2l-2-1c7.7-2.6 15.7-1 23 2"/><path fill="#e4bd94" d="M312 49c1.8 2.7 2 4.1 2 7.4-1.2 4.4-2.3 6-6 8.6-4.3.8-7.3.5-11-2-.2-2.6-.2-2.6 0-5h2v2h2l1-3h2l1-2 2 1 1-3 1-2h2z"/><path fill="#d3af8d" d="m534.8 643.3 2.2.7c-1.6 4.2-4.7 6.8-8 9.7l-1.8 1.6-8.2 7.5-2.6 2.5-2.4 2.2c-2 1.5-2 1.5-5 1.5v-2h3l-.4-2.1c.6-4 2.5-5.2 5.6-7.7 1.8-1.2 1.8-1.2 4.8-2.2l1-3h2v-2l2-1 1-3c2.4-2.4 3.3-3 6.8-2.7"/><path fill="#ccaa81" d="M452.3 266.8c5.3-.2 5.3-.2 7.4 1.7l1.3 1.5q-10 1.2-20 1l-1 3-9 1v2l2 2-3 1 1 4-2 1-1-3-2 3c-.2-4.5-.2-8 2-12a49 49 0 0 1 24.3-6.2"/><path fill="#d3b188" d="m329 304 13.6.4h3.8A55 55 0 0 1 364 307l6 1c-2 2-2 2-4.3 2.1l-2.9-.2-3.1-.1-3.3-.2-9.2-.6H345l-1 1h-9.2c-2.8-.2-2.8-.2-4.8 1v-3h5v-2l-6 1z"/><path fill="#cca77a" d="M95 157a72 72 0 0 1 41 11c-3 1.8-4.2 2-8 2l-1-2c-2.8-.5-2.8-.5-6-.6l-3.4-.3-2.6-.1v-4l-3-1v-2h-2.4c-2.6 0-2.6 0-3.6-1l-5.6-.6-3-.2-2.4-.2z"/><path fill="#d9b487" d="m171 325 1 3c-5.4 6.2-11 7.1-19 8h-4l-1-3-2-1z"/><path fill="#dbb98a" d="M477 319a111 111 0 0 1 24 6l-3 3 1 3-3-1v-3h-8v-2h-3l-3.9.1-3.8.1c-3.3-.2-3.3-.2-5.3-2.2v-3l5 1z"/><path fill="#95b0a8" d="M408 100a64 64 0 0 1 27 12l-3 1-2-1v2h-3v-3h-4v-2l-5 1v-2h-2l-1-2-7-2z"/><path fill="#98b9ac" d="M352 233h14v2l-28 8-1-4h2l2-5c3 0 5 0 8 1l3-1z"/><path fill="#d9ab82" d="M611 453h1l.1 27.4v2.3q0 6.6-1.1 13.3h-2l-.2-29.2v-2.4c0-4.3.2-7.5 2.2-11.4"/><path fill="#d0ad83" d="m503.6 198.9 2.4.1q-5.1 11-12 21l-1-2-3 1c-.4-6.5-.4-6.5 1.5-9l1.5-1 1 2c2.2-2.7 2.2-2.7 3.5-6 1-3.7 2.1-6 6.1-6.1"/><path fill="#a98d6f" d="M408 80v1l-2.4.2c-8.4 1-15.9 3-23.8 5.7-5 1.7-9.6 2.7-14.8 3.1l-2-1 1-3 3 .2c3.5 0 6.3-1 9.6-2.3 20.2-7.7 20.2-7.7 29.4-3.9"/><path fill="#76988d" d="m252 66.7 3.6-.1c8.2 0 14.8 1.3 22.4 4.4l-1 2h-2v-2a155 155 0 0 0-30.2-.4l-9.8.4-1-3c6-1.4 12-1.3 18-1.3"/><path fill="#c1a382" d="m230 27 2 2c2.5.3 2.5.3 5.4.2h6.7l3.5-.1 8.4-.1-1 3-3.5.1A103 103 0 0 0 221 37l-1-2 1.7-1 2.2-1.3 2.2-1.3c2.2-1.4 2.2-1.4 3.9-4.4"/><path fill="#cda77e" d="m515 148 .2 12.7A74 74 0 0 1 513 179h-2l-1-6 1-1q.4-5.3-.5-10.4a44 44 0 0 1-.7-7.3l-.1-2.3q0-1 .3-2c3-2 3-2 5-2"/><path fill="#cca87f" d="M307 296c2 1 2 1 4 3 .3 3.7.3 3.7 0 7l-3 1-1 4-18 1-1-2 14-1-3-1v-2l5-1-3-8 5 1z"/><path fill="#deb885" d="M443 312q16.6 2.4 33 6v1h-1.9c-7.1-.1-14.1.1-21.1 2v-2l-5-1v-2l-2-.9c-2-1.1-2-1.1-3-3.1"/><path fill="#cdae8d" d="M120 667c5.6 1.2 8.1 2.6 12 7 3 3.3 4.6 4.3 9 5l1 2 4 2c-1.7 1.1-1.7 1.1-4 2-4.3-1.3-8-3.7-11.8-6.1l-1.8-1.2-4.4-2.7 2-1c-2-2-3.6-3.4-6-5z"/><path fill="#d2ac83" d="M697 529h6l1 3-6.8 5-2 1.4-1.8 1.3-1.8 1.3c-1.6 1-1.6 1-4.6 2v-2h-2c.3-3 1-4 3.3-6.2 2.7-1.8 4.5-2.4 7.7-2.8z"/><path fill="#d7b387" d="M599 407c3 1 3 1 4 3l2-1 5 21h-2l-2 2-1.4-3.4c-1.3-3.6-1.3-3.6-3.6-5.6h2l-1-1.7a20 20 0 0 1-1.6-7.4c-.2-3.6-.2-3.6-1.4-6.9"/><path fill="#ebd2b0" d="M532 341c9.4 3 19 6 27 12l-1.8.3a10 10 0 0 0-5.2 3.7l-1.4-1.9C549 353 549 353 547 351c-3-.2-3-.2-6 1l-1.7-3.3c-1.9-3.4-3.8-5-7.3-6.7z"/><path fill="#d3b18b" d="M190 214c3.4-.4 4.6-.3 7.3 1.8 1.7 2.2 1.7 2.2 1.7 5.2l4 1-1 3h2l3 3.4c2.1 2.8 2.1 2.8 5 4.6v2l1.9.9c3.2 1.7 5 4.2 7.1 7.1l-3 1-.8-2c-1-2.3-1-2.3-4.2-3l-3.6-4.4q-2.6-2.8-5.8-5.2-4.7-4.3-8.6-9.4l-1.6-1.8z"/><path fill="#8da99b" d="m252 215 3 2h3a47 47 0 0 1 6.8 5.5c1.2 1.5 1.2 1.5 1.6 3.5 1 3 2.9 3.6 5.6 5 2.3 1.5 2.3 1.5 4 3v3l-3 1-1.2-1.5-1.7-2-1.6-1.9c-1.4-1.7-1.4-1.7-3.5-2.6v-2l-1.7-.7c-2.9-1.6-5.1-3.7-7.6-6L253 219l-2-1.9z"/><path fill="#a58b68" d="M501.7 283.7h2.3l12 .2 12 .1v3a157 157 0 0 1-28.7.4l-8.3-.4c2.7-4 6.4-3.4 10.7-3.3"/><path fill="#98b7a9" d="m423 208 2 1v2h2v-2h2v2l2 1c-9.1 4.8-18 9.1-28 12l2-6h3v2h2v-2l9-4v-2h2z"/><path fill="#d2ac7e" d="M710 482c1.9 2.4 3 4 4 7l-1 2c-1.2 2-1.2 2-.6 4.3l.6 1.7-4 2v2h-2v2l-4 1c0-4.2.7-6.1 2.4-9.9q2.6-6 4.6-12.1"/><path fill="#b69b7a" d="M357 305a477 477 0 0 1 35 1v2a45 45 0 0 1-12.5 1.2h-2.4A68 68 0 0 1 358 307z"/><path fill="#d8b88d" d="m33 369 1 2 3 1c-2.2 4-4.8 7.3-7.7 10.8l-2.4 3L25 388l-3-1c1.5-4.4 4-8 6.6-11.8l1.3-1.8z"/><path fill="#d7b889" d="M67 344c-2 3-2 3-5 5l-7.6 6.2A11 11 0 0 1 48 358l-1-1-2-1 10-8 1.8-1.4c3.4-2.6 6-3 10.2-2.6"/><path fill="#cda883" d="m431 705 3 2 2-1 4 3v2l-14 5v-3h-2v-3l6-4z"/><path fill="#e6b588" d="M529 193h3c2 4.1 2.2 7.5 2 12h-2l1 4c-2.4-.2-2.4-.2-5-1-2-3-2.2-5.1-1.7-8.6l.2-2.4c.5-2 .5-2 2.5-4"/><path fill="#bf9f74" d="M258 11a73 73 0 0 1 23 6l-1 3h-8v-2l-2 .2c-4-.3-6.5-1.6-10-3.2v-2z"/><path fill="#dbb288" d="M508 176h3c1.2 5 .7 8-1 12.9l-1 3.5-1 2.6-2-2-3 3v-5h2l-.6-2.2c-.5-3.3.2-5 1.5-8.1l1.2-2.7z"/><path fill="#c7ac8a" d="M418 76.9h2q7 0 14 1.1v3l-30-1-1-2q7.4-1.2 15-1.1"/><path fill="#deb689" d="m587 570 2 2-4.9 9.3-1.4 2.7-1.3 2.6-1.3 2.3C579 591 579 591 577 594l-3-1q1.4-7.6 4-15l2 2-1 2h3l.6-1.9.8-2.4.7-2.4c.9-2.3.9-2.3 2.9-5.3"/><path fill="#d6b384" d="M232 312c-.7 2.4-.7 2.4-2 5-6.7 2.8-14.9 2.2-22 2v-3l10.9-2 3.1-.6 3-.5 2.8-.5c2.2-.4 2.2-.4 4.2-.4"/><path fill="#d9b385" d="m89.6 332.9 3.4.1v2l4 2-1.8.6-2.4.8-2.5.8c-2.4.8-2.4.8-5.1 2-2.5 1-3.7.7-6.2-.2l1-1-2-1v-2l2.9-.9c4-1.4 4.4-3 8.7-3.2"/><path fill="#c3a47f" d="m554 270 2 1c-1.5 4.5-5 6-8.9 8.2l-1.9 1c-3 1.7-5.8 3.2-9.2 3.8v-3l4-1v-3l5-2v-3l9 1z"/><path fill="#93b0a5" d="M448 191h2a29 29 0 0 1-6.3 10.4l-2.3 2.7c-2.4 1.9-2.4 1.9-5.2 1.7l-2.2-.8v-3h3l2-4h2l.2-1.9c.8-2.1.8-2.1 3.3-3.3l2.5-.8z"/><path fill="#a88969" d="M612 454c1.9 3.7 2.3 4.8 2.3 8.7v8.8q-.4 14.9-2.3 29.5l-3-1v-4h2z"/><path fill="#cdac89" d="m573 594 3 2-5.3 8-1.5 2.3-1.5 2.2-1.3 2-1.4 1.5h-3c-.4-3.3-.2-4.7 1.8-7.4l2.2-2.6 2-3.3 2-2.7h3z"/><path fill="#ecc38e" d="m351 283 1 2-2 1-1 3h2l1-2a10 10 0 0 1-2.5 5.8c-3.9 1.8-7.4 1.4-11.5.2-2-2-2-2-3-4l4-1 1 1 2-1 5 1 .3-1.9c.7-2.1.7-2.1 3.7-4.1"/><path fill="#d8b182" d="M458 267a98 98 0 0 1 15.4 1l2.3.3 5.3.7-1 3q-5.8.1-11.7-.6c-4.5-.6-8.8-.1-13.3.3q-6 .5-12 .3v-1l3-.4 4-.5 3.8-.5 3.2-.6z"/><path fill="#dab284" d="M378 250h30v2c-19.3 2.6-19.3 2.6-29 1z"/><path fill="#d2ab7e" d="m608 496 1 4h2a45 45 0 0 1-2 15c-2.6-1.6-2.6-1.6-5-4 .2-3.7.2-3.7 1-7h2v-3.4c0-3.6 0-3.6 1-4.6"/><path fill="#c9a67b" d="M507 122c5 5 6.3 15 7 22h-4c-5.2-16-5.2-16-3-22"/><path fill="#f2d7b8" d="m135 336 4 1c-1 2-1 2-4 4l-5 5c-4.8 4.9-4.8 4.9-7 6q-2.9 0-5.6-.4l-3-.3-2.4-.3v-1l1.8-.1c4.4-.5 8.2-1 12.2-2.9v-3l4-4 2-2 2 1z"/><path fill="#a68d70" d="M474 285c-1.8 2.3-2.7 3-5.6 3.5l-3.2.2-3.4.3-3.5.2-3.6.2-8.7.6v-2a79 79 0 0 1 28-3"/><path fill="#d0ad81" d="m685 519 2 1v5l-4 2-3 1.6c-3 1.4-4.7 1.7-8 1.4v-2l-2-1 3-1.5 4-2 2-1c3.2-1.4 3.2-1.4 6-3.5"/><path fill="#d1b490" d="M376 252a24 24 0 0 1-13 5.3c-2.2.5-2.2.5-3.1 2.7l-.9 2a17 17 0 0 1-10 2 32 32 0 0 1 10.8-7.6l1.8-1c10.7-5.2 10.7-5.2 14.4-3.4"/><path fill="#dab188" d="M712 455h3l2 18-2 1v-2h-2l1.6 2.8c1.4 3.2 1.4 3.2.4 6.2h-2v-3l-2-1 .5-3.1c.8-6.3.6-12.6.5-18.9"/><path fill="#caa67c" d="m92 221 7.3 2.9 2 .8q5 1.9 9.7 4.3c-1.6 1.6-1.6 1.6-4 3-3.7-.7-3.7-.7-7-2l-1-2-4-1-4-2z"/><path fill="#ccaa7a" d="m75 200 .9 1.8 3.1 5.7q1.6 2.9 3 5.9c1 2 1 2 4 2.6l-1 4h-2l-.1-1.9-.9-2.1-2.9-1c-3.1-1-3.1-1-5.1-3-1.5-4.4-.3-7.7 1-12"/><path fill="#6b8880" d="M404 99v3c-3.8 1.2-7.5 1.1-11.4 1.1h-4q-4.4 0-8.6-1.1c7.1-4.3 16-3.1 24-3"/><path fill="#e4c8ac" d="M65 587c3 2 3 2 4 5l3.5 3.3Q77 601 81 607c-3 0-3 0-5-1v2h-2l1-5h-2l-1-6h-2v-2h-3v-2h-2z"/><path fill="#d1ad7e" d="M723 417h3l2.3 7.4c.7 2.6.7 2.6.7 6.6l-6 1a43 43 0 0 1-1-14z"/><path fill="#c9a483" d="M306 256c2.8 1.7 3.9 2.5 4.8 5.7l.4 3 .5 3 .3 2.3h-3l-2-2-2 3-.1-2-.3-2.4-.2-2.5-.4-2.1-2-1h2l.4-2c.6-2 .6-2 1.6-3"/><path fill="#af906c" d="m407 59-4 1v2l-11 2v2h-9l-1-3a86 86 0 0 1 25-4"/><path fill="#be9d77" d="M312 49c1.9 2.7 2 4.1 1.9 7.5-1 3.8-2 5.1-4.9 7.5l-1-3h-2c.4-5.4.4-5.4 1-8 2-1.4 2-1.4 4-2z"/><path fill="#c6aa8f" d="m237.7 719.4 2.3.4c5.7 1 5.7 1 8 2.2v2h3v2q-13.5-2.6-27-6v-1c4.8-1.4 8.9-.6 13.7.4"/><path fill="#cea881" d="M596 551h2a103 103 0 0 1-8 19l-4-3 1-7 2.4-.4c2.6-.5 2.6-.5 4.6-1.6l-.1-2.4c.1-2.6.1-2.6 2.1-4.6"/><path fill="#b0956e" d="m257 310 1 2c-17 4-17 4-24 0 18.4-3.5 18.4-3.5 23-2"/><path fill="#dcb68c" d="M301 262h3l1 6-5 2v2l-3 1-1 2-3-1c.7-2.9.7-2.9 2-6l5-2c.9-2 .9-2 1-4"/><path fill="#dab182" d="M482 269h38v1l-9.4 1-2.7.3c-14.8 1.5-14.8 1.5-22-.3l-2.2-.6-1.7-.4z"/><path fill="#cea87d" d="m193 48 4 4-11 11-2-2v-4h3l.2-1.7c1.1-3.2 3.3-5 5.8-7.3"/><path fill="#b7976c" d="m644 367-1 2q-5.5.7-11 1l12 1v1l-1.8.1c-4.5.5-8 1.1-12.2 2.9l-2-1v-2l-8-1c3.7-2.2 7.2-2.6 11.4-3.1l4-.5q4.3-.5 8.6-.4"/><path fill="#e9dac7" d="m439 689-3 1c-1.2 2-1.2 2-2 4h-3.2q-4.5 0-8.8 1v2l-4.7 1.5-2.7.8c-2.6.7-2.6.7-6.6.7v-2l2-.6a237 237 0 0 0 18.9-6.5l3-1.1 2.8-1.1c2.3-.7 2.3-.7 4.3.3"/><path fill="#e4c5a2" d="M488 659h2c-.2 1.9-.2 1.9-1 4l-1.7.8c-2.6 1.4-3.2 2.4-4.7 4.8-1.2 2-1.2 2-2.6 3.4-3.3.4-3.3.4-6 0 .2-1.8.2-1.8 1-4 2.4-2 2.4-2 5.4-3.7l3-2c2.6-1.3 2.6-1.3 4.6-1.3z"/><path fill="#dfb784" d="M706 416h2v2l4-2-.4 4.3-.3 2.3c-.3 2.4-.3 2.4-.8 4.5-.7 2.6-.6 5.2-.5 7.9-2.6-2.6-3-5-4.1-8.6l-1.1-3.6-.8-2.8 2-1z"/><path fill="#cdae87" d="m471 284 11.4-.1h3.2l3.2-.1h2.9c2.3.2 2.3.2 4.3 2.2-5 1.3-9.8 1.1-14.8 1H472z"/><path fill="#ab8c68" d="M458 267c1.7 1.5 1.7 1.5 3 3-8.7 1.2-17.3 1.1-26 1 4.9-4.9 16.3-4.6 23-4"/><path fill="#c9a881" d="m78 177 2 1-1 4h2l1-2 2 2-2.9 2c-3.5 3-4.2 5.5-5.1 10h-1v-5h-2l1-6h2l-1-5z"/><path fill="#cfae8a" d="m552 208 5 1v5h-2l1 9-1.2-1.7q-4.2-5.5-9.8-9.3l3-.9c3.1-.7 3.1-.7 4-3.1"/><path fill="#cfa879" d="m239 11 9.3-.1h2.7l2.6-.1h2.3c2.1.2 2.1.2 5.1 2.2l-1 2 2 1-8.7-.9-2.5-.2c-4.2-.5-7.9-1-11.8-2.9z"/><path fill="#bd9e79" d="M667 530v3l3 1c-4.8 1-9.2 1-14 1l-1 2-7 1c.3-2 .3-2 1-4a61 61 0 0 1 8-2.8l2.2-.7c5.5-1.6 5.5-1.6 7.8-.5"/><path fill="#d4b186" d="m215 16 2 1-1 2 4 1-1 2h-3l-1 2-3-1-3.6.6-3.4.4-2-2 5.9-3 3.3-1.8z"/><path fill="#e4c39d" d="M235 259h4l.3 2.4.7 2.6 4 2 4.1 3.4 2.1 1.7c1.8 2 2.8 3.5 3.8 5.9-3.5-.6-5.2-1.8-7.7-4.3l-2-2-2-2.1-2.2-2.1c-5.1-5.2-5.1-5.2-5.1-7.5"/><path fill="#d9b38b" d="m5 488 2 1c.4 2 .4 2 .6 4.6L8 496v2h2v-2l2 1c-.7 4.8-.7 4.8-3 7h2l-1 8a35 35 0 0 1-3.6-10.9l-.8-3.6q-.8-4.7-.6-9.5"/><path fill="#c3a47e" d="M553 192v1h-7l-1 2-11-1v-2l-2-1a35 35 0 0 1 21 1"/><path fill="#c2a580" d="M644 536a14 14 0 0 1-7.4 4.7l-2.3.7c-2.3.6-2.3.6-6.3.6l-1-4c5.5-2 11.3-3.9 17-2"/><path fill="#d1a97f" d="M3 445h1l.4 3 .6 3 2 1c.4 2.5.4 2.5.6 5.6l.3 3L8 463H6l-1 2-2-1z"/><path fill="#efcfaf" d="M47 382h1l-1 26h-1v-16a24 24 0 0 0-8 6q2-5.5 5-10.2l1.7-2.7C46 383 46 383 47 382"/><path fill="#bea986" d="m405 266 1 2a92 92 0 0 1-22 3v-2c3.2-1.8 5.7-2.4 9.4-2.6l2.9-.2q4.3-.3 8.7-.2"/><path fill="#88a093" d="M232 198h3l2 2 2 1 4 5 2 1c1.7 2.6 2.4 4 3 7a225 225 0 0 1-12.5-9.7l-2-1.7C232 201 232 201 232 198"/><path fill="#91aea3" d="m219 75 4 2c-3 2-3 2-6 2l-.7 1.8A13 13 0 0 1 211 86h-3v3l-4-1c9.2-9.6 9.2-9.6 15-13"/><path fill="#d3af88" d="M152 685v2h3v2l8 2-1 2c-13.1-2.7-13.1-2.7-18-6v-2c3.3-1.1 4.7-.8 8 0"/><path fill="#dcb184" d="m585 565 1 3 3 1c-1 2-1 2-3 4q-1.2 2.2-2.1 4.6l-1.1 2.5-.8 1.9h-3v-7l4-2v-4z"/><path fill="#e7c093" d="M624 549h2l2 4 2.4-.3 3-.3 3.1-.3 2.5-.1 1 1 7 1v1q-6 1.3-12.1 1.1h-3.7c-3.2-.1-3.2-.1-6.2-1.1z"/><path fill="#85a39a" d="m377 103 2 3-8 1v2c-1.6 1.1-1.6 1.1-4 2-3.2-.9-3.2-.9-6-2q4.2-3.4 9.1-5.2l2.7-1.1c2.2-.7 2.2-.7 4.2.3"/><path fill="#c8a87f" d="M486 89a126 126 0 0 1 10 11l-1 2v2l-5-1-1-2 1-1-2-1c-1.4-3.6-2-6-2-10"/><path fill="#8eb2a7" d="M275 71v2l3 1c-6 .2-6 .2-8 0l-2-2-2 1-2-1-8.7-.4-3.4-.2h-3.5L240 71v-1l11.3-.6 3.2-.2A71 71 0 0 1 275 71"/><path fill="#cca97e" d="M421 309q8.5.7 17 2v4h-2.7c-2.7 0-4.8.2-7.3 1v-2h-2l-2-3z"/><path fill="#bea07a" d="M94 158v2l-2.8.6-3.6.8-3.7.7-2.9.9-1 2c-2.5.9-2.5.9-5.6 1.6l-3 .8-2.4.6c5-5.3 17.4-13.8 25-10"/><path fill="#edd5b5" d="m563 357 3.5 2.8 2 1.6c2.5 2.6 1.5 7 1.5 10.6l-2-1v-4l-3-1v-2l-4 1-1-3 2-3h1z"/><path fill="#e1ba8e" d="m74 224 6 2-1 6h2v2h-5v-2h-5l1-4h1z"/><path fill="#bf9272" d="M294 539a55 55 0 0 1 21 10c-1.7.7-1.7.7-4 1-2.7-1.4-2.7-1.4-5-3l-1 3c-1-3-1-3-1-6l-2.2.2c-3.4-.2-5.1-1.2-7.8-3.2z"/><path fill="#ba9a74" d="M95 157a60 60 0 0 1 29 5v1c-8.6.1-8.6.1-12-1v-2h-2.4c-2.6 0-2.6 0-3.6-1l-5.6-.6-3-.2-2.4-.2z"/><path fill="#e1bd91" d="M494 146c3.5 3.5 4.1 7 4.1 11.8l-.1 4.2h-2l-2 4z"/><path fill="#b69979" d="m548 626 2 3 1-3 2 1-4.4 5.4-2.4 3.1C544 638 544 638 542 639l-2-4 2-1 1-3h2l1-2c1-2 1-2 2-3"/><path fill="#c8a580" d="m558 613 5 1-2.9 4.4-1.6 2.5C557 623 557 623 555 624v-2h-2v2h-3v-2h2l1-3c3.2-4.2 3.2-4.2 5-6"/><path fill="#c2a27c" d="M649 554v2l2 1a57 57 0 0 1-13.6 1.3H635c-5.6 0-5.6 0-8.1-1.8l-1-1.5h9.9c4.4.1 8.7-1 13.1-1"/><path fill="#e2b27d" d="m731 453 2 1v20c-3.2-3.2-3.1-6.2-3.1-10.5v-4.2c0-5.2 0-5.2 1.1-6.3"/><path fill="#a68b6e" d="m407.8 307.3 2.4.2 5.8.5-1 3h-9.2q-5.6.3-10.8-1c3.8-4 7.7-3.2 12.8-2.7"/><path fill="#c5a77e" d="m378 64 2 3c-1.6 2-1.6 2-4 4-3.2.3-3.2.3-6 0l-1 3-3 1 1-2.4 1-2.6-1-2z"/><path fill="#dab98f" d="M644 367a102 102 0 0 1 11 1v1h-7v2h-22v-1l3.7-.4 4.7-.5 2.5-.3c3.9-.1 3.9-.1 7.1-1.8"/><path fill="#d6b087" d="m309 304 2 2-3 1-1 4-18 1-1-2 14-1-3-1v-2h10z"/><path fill="#92aca5" d="M302 86a70 70 0 0 1 15 17l-3 1-1.2-2.2A44 44 0 0 0 306 94l-5-6z"/><path fill="#b89c81" d="M406 721a41 41 0 0 1-10 3.7l-3.1.8c-2.8.5-4.3.4-6.9-.5v-2c13.6-3.6 13.6-3.6 20-2"/><path fill="#caaa80" d="m200 285 3 1v2h1.9l2.4-.1 2.4-.1c2.3.2 2.3.2 5.3 2.2-3.7 2.3-6.7 2.4-11 2-3-2-3-2-5-4z"/><path fill="#b79f7e" d="M113 328.8h3.8c3.2.2 3.2.2 6.2 2.2l-6.2 1-3.6.7c-4.6.4-6.4-.1-10.2-2.7 3.5-1.2 6.3-1.2 10-1.2"/><path fill="#99a796" d="M290 261c3 1 3 1 4 3l.3 5v2.7q0 1.2-.3 2.3l-3 2-3-14z"/><path fill="#957c5e" d="M168 109h1v2l.4 8.6.2 3q0 6 1.1 11.9c.3 2.5.3 2.5-1.1 4.9L168 141a87 87 0 0 1 0-32"/><path fill="#dfb187" d="M405 714h3l1 1 3-1h5l-1 3h5c-3.8 2.2-7.8 3-12 4v-3l-3-1z"/><path fill="#dcb182" d="M595 541c3 3 3 5.9 3 10l-4 3-2 3h-2v-2h2l.1-2.3.3-3 .2-3c.4-2.7.4-2.7 2.4-5.7"/><path fill="#b69b76" d="m171 325 1 3c-4 2.8-7.2 3.5-12 4v-2l-6 1c3.4-2.2 6.3-3 10.2-4.1l2-.6z"/><path fill="#77908b" d="m408 100 5.7 1.4 3.2.7a62 62 0 0 1 8.1 2.9l-3 2v-2l-3 .6a22 22 0 0 1-11-1.6z"/><path fill="#a58c74" d="M384 725v2l-7.2 1.6-2.1.4c-3.5.8-6.3 1.3-9.7 0l1.9-.9c2.2-1 2.2-1 4.1-3.1l4.4-.7 2.3-.2c2.3-.1 4.1.2 6.3.9"/><path fill="#e6ceb8" d="m541 608 1 3c-1.7 2.6-1.7 2.6-4.2 5.6l-2.4 2.9a16 16 0 0 1-6.4 4.5 27 27 0 0 1 7.1-10.8l1.4-1.5z"/><path fill="#d0ab83" d="M697 529h6l1 3-9 6v-2h-2v-3l3-1z"/><path fill="#d9b487" d="M668 368v2l4 1h-6v2l2 1-13-1 1-3 4.9-1 2.7-.6c2.4-.4 2.4-.4 4.4-.4"/><path fill="#bea076" d="m443 312 6.2 1 3.5.5 8.3 1.5v3l-5.7-.4-3.2-.2c-3-.4-5.4-1-8.1-2.4z"/><path fill="#c1a37e" d="m430 243-2 4h-13l-1-3 5.8-1 3.2-.7a14 14 0 0 1 7 .7"/><path fill="#c3a57f" d="M700 504h1c.3 3.7.5 5.4-1.9 8.4-2.1 1.6-2.1 1.6-4.1 1.6l-2 4-4-2 2.7-2c3.5-3 5.7-6.3 8.3-10"/><path fill="#bea279" d="M528 284v3c-18.8.2-18.8.2-28-1v-1l10.6-.5 3-.1q7.2-.5 14.4-.4"/><path fill="#d4b283" d="m477 319 5 1v2l3 2c-2.4 1.2-3.9 1.2-6.5 1.2h-2.4c-2.1-.2-2.1-.2-4.1-2.2v-3l5 1z"/><path fill="#dbb789" d="M435 312c6-.2 6-.2 8 0l2 2-1 3h-12v-3h5z"/><path fill="#b79f7e" d="m479 230 4 3-11 10-3-2 3-1 1-3c1.4-1.7 1.4-1.7 3-3h2z"/><path fill="#caa67f" d="M512 160a12 12 0 0 1 3 3c.1 2.5.1 2.5-.2 5.4l-.4 2.8-1.4 7.8h-2l-1-6 1-1 .6-6 .2-3.4z"/><path fill="#d8b385" d="M54 596c3.5 3.2 5.6 5.2 6 10v2h-2l-1 2c-3-4.6-3-4.6-3-8l-.6-2.6-.4-2.4z"/><path fill="#d1ad83" d="M646 534.9h5.1l1.9.1-2 .9c-2.4 1.3-3 2.5-4 5.1h-3.3c-3.6-.2-3.6-.2-6.7 1 1.3-3.8 2.6-4.1 6-6 1-1 1-1 3-1.1"/><path fill="#bfa379" d="M102 330v2l2 2c-5 1.3-9.7 2.3-15 2l3-2-2-2 4.9-1 2.7-.6c2.4-.4 2.4-.4 4.4-.4"/><path fill="#bba080" d="M205 228c3.4 1.1 4.7 2.4 7 5v2l1.9.9c3.2 1.7 5 4.2 7.1 7.1l-3 1-.8-2c-1-2.3-1-2.3-4.2-3l-5-6-3-2z"/><path fill="#c5a277" d="m182 63 1 2 2 1-5 8-4-1c1.5-6.5 1.5-6.5 4.1-9z"/><path fill="#e3c5a9" d="M168 677q6.1 2 12 5 3 1.4 6.4 2.6c3.6 1.4 3.6 1.4 5.6 3.4-5.2-.4-8-.7-12-4l-7-2v-2h-4z"/><path fill="#e3cab1" d="M26 496h1l2.5 9.8.7 2.7.7 2.7.6 2.5c.5 2.3.5 2.3.5 6.3h-2l-2-7.5-.6-2.1c-1.3-5-1.6-9.3-1.4-14.4"/><path fill="#cbac7e" d="M712 398c3 0 3 0 5.1 1.8 1.9 2.2 2.8 3.3 2.9 6.2-1.4 1.8-1.4 1.8-3 3-3-2-3-2-3.7-4.2l-.5-2.4-.5-2.5z"/><path fill="#89a498" d="M352 233h14v2l-16 4z"/><path fill="#869e94" d="m419 218-15 6c0-3 0-3 1-6h3v2h2v-2c4.5-2.2 4.5-2.2 9 0"/><path fill="#b79879" d="M537 644a15 15 0 0 1-5 7c-2.7-.3-2.7-.3-5-1 .4-2.7.8-3.8 2.8-5.8 2.8-1.5 4.2-1.1 7.2-.2"/><path fill="#debe9b" d="m78 632 5 3v2h2l4 5 3 3-2 2-6-5.8-1.7-1.7Q80 637.3 78 635z"/><path fill="#bfa989" d="m610 374-4 1v2l-5.2 2-3 1.2c-3 .9-4.7.7-7.8-.2 3.4-2.2 6.8-3.4 10.6-4.7l2-.7c5.2-1.7 5.2-1.7 7.4-.6"/><path fill="#839f91" d="M312 248c2.8-.2 2.8-.2 6 0 1.7 1.5 1.7 1.5 3 3l-4.9 3-2.7 1.7C311 257 311 257 309 257l1-3h2z"/><path fill="#cfb082" d="M553 243h4c-1.4 7.4-1.4 7.4-4.6 10.5L550 255v-4h2v-2l-2-1c1.3-2.5 1.3-2.5 3-5"/><path fill="#7b8e85" d="M386 229c-3.5 2-6.9 2.8-10.7 3.6l-3.6.8-2.7.6-1-3a30 30 0 0 1 18-2"/><path fill="#d5b691" d="m449 81 2 3-1 3-4.4-1.4-2.5-.7C441 84 441 84 440 82c3.3-2 5.3-2.3 9-1"/><path fill="#d7ae81" d="m98 649 5 1 1 3 2 1-1 3 3 2-1 3-8-7 1-2c-.9-2.1-.9-2.1-2-4"/><path fill="#e3c6a7" d="M526 625h2c-.3 3.3-.7 4.7-3 7l-2.6 1.8-2.5 1.8-1.9 1.4-2-1 2-3h2l2-4h2z"/><path fill="#cca67a" d="m620 372 3.8 1 3.2 1-1 2h-4.3l-2.3-.1q-3.3.2-6.4 1.1l-1-5c3.1-1 4.9-1 8 0"/><path fill="#dfbb95" d="M202 201c4.5 1.4 7 3.7 10.3 7.1l2.7 2.8 2 2.1-1 3-4-3v-2h-2l-1.9-2.9c-2-3-2.8-4-6.1-5.1z"/><path fill="#d8b081" d="M379 64h6v1l7 1a19 19 0 0 1-7.4 3.2l-2.3.5c-2.4.3-4 0-6.3-.7l1.5-1.4c1.7-1.5 1.7-1.5 1.5-3.6"/><path fill="#cda87f" d="M120 667c5.6 1.2 8 2.6 12 7l3 2v2l-8-4-1 2-2-2h2c-2-2-3.6-3.4-6-5z"/><path fill="#d5af84" d="M26 548h2c3 6.4 3 6.4 2.7 9.4L30 559v4h-2c-2-3.3-2.2-5.9-2.1-9.7v-3z"/><path fill="#ddbf94" d="M213 275c3 1 3 1 4 3l.2 4.5v2.4c-.2 2.1-.2 2.1-2.2 4.1l-3-1h2z"/><path fill="#a78f68" d="M575 218h1a56 56 0 0 1 1 17l-2 3a42 42 0 0 1 0-20"/><path fill="#bf9e7f" d="M178 197h4l.3 2.2c.8 3 2 5.1 3.7 7.8v2h2l-1 3-5-5.8-1.5-1.7q-1.9-2.2-3.5-4.5z"/><path fill="#97b1a8" d="M441 120c3.7 1.5 5.2 3.3 7.3 6.6l1.5 2.5 1.2 1.9h-3l-2-5-4 1-2-5z"/><path fill="#d4ac78" d="M85 335c-2 2-2 2-4.6 2.1L78 337v2h5c-3.4 3.1-6.4 3.6-11 4l-1-2h6l-4-3 4.9-2 2.7-1.2c2.4-.8 2.4-.8 4.4.2"/><path fill="#a88f70" d="m401 248-1 2-5.7.7-3.2.2a30 30 0 0 1-8.1-.9v-1a39 39 0 0 1 18-1"/><path fill="#819d91" d="M263 227c3.5.6 6 2 9 4l2.3 1.5 1.7 1.5v3l-3 1-2.9-3.4-1.6-2c-1.4-1.7-1.4-1.7-3.5-2.6v-2z"/><path fill="#dbb488" d="m480 225 4 1 1 5-4 1c-2-3-2-3-1.6-5.2zm-3 6 1 3h-2l-1 3h-2v-3c2-1.7 2-1.7 4-3"/><path fill="#c7a37b" d="M283 19c7.1 3.9 7.1 3.9 10 7-8.2-.4-8.2-.4-11.6-3l-1.4-2z"/><path fill="#eadacc" d="M250 704c8.5.6 16.7 2.2 25 4v1c-9.3.4-17.1.3-25-5"/><path fill="#e6c9a9" d="m563 576 1 2c-2.3 6.6-2.3 6.6-6 9-.3 2.6-.3 2.6 0 5h-4c1.5-6.3 5.2-11 9-16"/><path fill="#867157" d="m357 305 7.8-.1h2.2c3.8-.1 6.7 0 10 2.1-13.6 1.5-13.6 1.5-20-1z"/><path fill="#8fab9c" d="m328 241 1 2 1.8-.6c2.2-.4 2.2-.4 5.2.6-3.4 3-6.7 4-11 5l-3-3 3-1v-2z"/><path fill="#e6bc91" d="M178 192h4c1.5 2.6 2 3.9 2 7l-8-1-1-4h2z"/><path fill="#8baca5" d="m287 75 3 3-13 1-1-4c4-.8 7-1.3 11 0"/><path fill="#ddbb93" d="m268 31 10 1-1 6c-4.7-.9-4.7-.9-7-2z"/><path fill="#8c755d" d="m256 29-1 3h-20c4.1-2 7.2-2.4 11.6-2.6l2-.1z"/><path fill="#b7956b" d="m244 14-11 2-1-2-4-2c5.9-1.3 10.9-1.4 16 2"/><path fill="#c7a888" d="m495 677 4 2c-6 4.9-6 4.9-10 5.3l-2-.3-1-4 9-1z"/><path fill="#e8bf97" d="M61 600c2.1 3.2 2.2 4 2.1 7.7v2.4L63 612l-5-1v-3h2l-.6-1.7c-.5-2.8.2-4 1.6-6.3"/><path fill="#bea17c" d="m647 367 7.3-.1h2c3.8-.1 6.5 0 9.7 2.1-6 1.3-12 1-18 1z"/><path fill="#edccae" d="m329 339 3 2v3h-20v-1l17-2z"/><path fill="#bfa081" d="M72 232h4v2l6-1 .4 2 .6 2 2 1-2 2-5.5-3.4-3-2L72 233z"/><path fill="#e8c9a1" d="M555 217c3.5 4.6 4.2 7 4.2 12.6v2.9c-.2 2.5-.2 2.5-2.2 4.5z"/><path fill="#c6a17b" d="M510 180h1c-.4 5.3-1 10-3 15l-2-2-3 3v-5h2l1-3 2 1z"/><path fill="#c2a17a" d="m721 502 4 3-3 5-1.6 2.8-1.4 2.2h-1l.4-4.8.2-2.7c.4-2.5.4-2.5 2.4-5.5"/><path fill="#aa8c6e" d="M278 307c-3.6 2.4-7 3-11.2 3.6l-2.3.4-5.5 1 1-3c5.1-2.6 12.4-2.1 18-2"/><path fill="#ceac87" d="m542 276 4 2v2l-3.9 2-2.2 1.1c-1.9.9-1.9.9-3.9.9v-3l4-1v-3z"/><path fill="#b39677" d="m142 253-2 3-16-3v-1c6.4-1.4 11.7-.4 18 1"/><path fill="#c8a67e" d="m173 80 3 1-5 16c-2.3-4.6-2-5.4-.7-10.2l.9-3.2c.8-2.6.8-2.6 1.8-3.6"/><path fill="#e7d5c0" d="m458 678 2 1c-5 5.6-12.5 8.5-20 9 1-2 1-2 3.3-3.1 2.7-.9 2.7-.9 6.7-.9v-2l3.9-2 2.2-1.2z"/><path fill="#e2c4aa" d="M35 528c2.6 2.6 3 5 4.1 8.6l1.1 3.6.8 2.8h-3v-5h-2c-1.6-3.2-1-6.4-1-10m-2 8 2 1-2 1z"/><path fill="#eccaa9" d="M126 344h2l1 3a13 13 0 0 1-5 5q-6 0-12-1v-1l1.8-.1c4.4-.5 8.2-1 12.2-2.9z"/><path fill="#ae9477" d="M383 270c-1 2-1 2-3.7 3l-3.2 1.1-3.3 1.1c-2.8.8-2.8.8-4.8.8l-1-3c5.7-2.5 9.8-3.3 16-3"/><path fill="#7b9a90" d="m231 69 1 2 2 1c-1.5 2.1-1.5 2.1-4 4-2.9-.3-5.2-1-8-2 2.9-2.3 5.5-3.8 9-5"/><path fill="#caae8e" d="m225 715-1 4-3.8-.4-2.2-.2c-2-.4-2-.4-5-2.4 4.4-1.5 7.5-2.4 12-1"/><path fill="#c2a689" d="m182 703 6 2 2.1.7 2.2.7 2 .7c1.7.9 1.7.9 2.7 3.9q-8.8-2.4-17-6z"/><path fill="#cba88a" d="M454 701c2.6-.4 2.6-.4 5-1l1 2-9 4-3-5c3-1 3-1 6 0"/><path fill="#c38d68" d="m351 656 1 2c-5.2 2.2-8.3 3.6-14 2a19 19 0 0 1 13-4"/><path fill="#d5b190" d="M541 636c.8 1.8.8 1.8 1 4-1.6 2.3-1.6 2.3-4 4-2.7-.2-2.7-.2-5-1l1-2h2v-2h2l1-2z"/><path fill="#cfb291" d="m67 619 2.1 2.2q3 2.9 6.2 5.3c2.7 2.5 2.7 2.5 3 5.3L78 634q-4.3-4.2-8.3-8.6l-1.6-1.8C67 622 67 622 67 619"/><path fill="#c9a680" d="M715 441h2v5h-2l-.4 1.8q-1 3.2-2.6 6.2c-1.1-7.7-1.1-7.7 0-10h2z"/><path fill="#cea881" d="m240 237 6 5v2h2v2h-8l2-5h-2z"/><path fill="#bf9c76" d="M168 242c5 .7 9.4 2.9 14 5-3 1-5 1-8 0a22 22 0 0 0-7-1z"/><path fill="#7f958b" d="m401 223 1 2-14 4 1-4a31 31 0 0 1 12-2"/><path fill="#e8be91" d="M164 169h3c1.2 3.6.7 6.3 0 10v3l-3-2c-.3-2.6-.3-2.6-.2-5.6v-3z"/><path fill="#cda980" d="M90 641h5c.7 2.3.7 2.3 1 5-1.4 2.3-1.4 2.3-3 4-2.8-2.8-2.6-5.2-3-9"/><path fill="#c3a079" d="M710 482c3 4 3 4 4 7l-2 .9c-2.2 1-2.2 1-3 3.1h-2z"/><path fill="#ccac84" d="M9 416c1 3.4 1 6.5 1 10l1 3-3 3H6q.6-8.2 3-16"/><path fill="#cfab80" d="M13 404c2.6 3.8 2.6 6.4 3 11l-4 3v-3.4c.3-3.4.3-3.4-1-5.6z"/><path fill="#b19875" d="M483 320c12.7 3 12.7 3 18 5-1.6 1.1-1.6 1.1-4 2-3.7-.9-3.7-.9-7-2v-2l-7-1z"/><path fill="#caab82" d="M545 254h1v7l-3 1-1-2-1.7 1.6c-2.3 1.4-2.3 1.4-4.4 1l-1.9-.6 1.9-1.2 2.5-1.7 2.4-1.6c2.3-1.5 2.3-1.5 4.2-3.5"/><path fill="#ccab85" d="M164 692q3.6.8 7 2l-1 3-4.8-.3-2.7-.2c-2.8-.6-3.7-1.3-5.5-3.5h3c2.9.4 2.9.4 4-1"/><path fill="#d5b697" d="M114 665c3.8 1.1 6.4 2 9 5l3 2v2a17 17 0 0 1-8.2-4l-2.2-1.5-1.6-1.5z"/><path fill="#cdb08c" d="M336 276h1v12l-3 1c-1.2-5.4-1-8.2 2-13"/><path fill="#86a297" d="m345 237 1 2 2 1-10 3-1-4z"/><path fill="#ab906e" d="M116 230c12.7 1 12.7 1 18 2-3.8 2.5-6.4 2-10.7 1.6l-7.3-.6z"/><path fill="#c39f78" d="m506 199-4 8-1-3-3 3c-.7-1.7-.7-1.7-1-4 2.7-3.7 4.5-4.5 9-4"/><path fill="#97b3a3" d="M225 192c3.4 1 6 2 9 4l-1 4q-4.4-1.9-8-5z"/><path fill="#8fada3" d="M452 136h2l2 7h-3v5h-1l-1-5h-2v-2h2z"/><path fill="#ad937a" d="m519.2 660.4 1.8.6-4.3 4-2.4 2.3C512 669 512 669 509 669v-2h3v-3h2v-2c3-2 3-2 5.2-1.6"/><path fill="#f2e8e0" d="M378 638c0 3 0 3-2.2 5.4l-3 2.7-3 2.7a13 13 0 0 1-7.8 3.2q4.6-4.8 10-8.5 3.4-2.5 6-5.5"/><path fill="#bd9478" d="m244 554 2 4-2.4 1.6c-3 2.7-3.6 4.6-4.6 8.4l-2-1c.3-5.4 3.7-9 7-13"/><path fill="#b89e7c" d="M596 551h2l-1.4 4.3-.7 2.3q-1.3 3.3-2.9 6.4h-2l1-6h2l-.1-2.4c.1-2.6.1-2.6 2.1-4.6"/><path fill="#d0ac7a" d="m704 389 5 4v2l3 1-2 4c-2-1.8-2-1.8-4-4v-3h-2l-1-3z"/><path fill="#ad9371" d="m668 368 7.9 1.9 2.2.5c5.7 1.4 5.7 1.4 7.9 3.6l-17-2z"/><path fill="#e6c8a7" d="M147 335q-5.3 3.6-11 7l-2-2c1.3-1.5 1.3-1.5 3-3h3v-2c3.1-1 4-1 7 0"/><path fill="#d7b997" d="M121 331c3.3.4 4.7.7 7 3 1.9 2.3 1.9 2.3 4.8 2.3l2.2-.3-1 3c-2 .7-2 .7-4 1v-2h-2v-2h-3v-2h-2v-2z"/><path fill="#ac8e6b" d="M299 306v2h6c-3.2 2.1-4 2.3-7.6 2.2h-2.3c-2.1-.2-2.1-.2-4.1-1.2v-2c3-1 5-1 8-1m-6 2 4 1Z"/><path fill="#cba782" d="M324 296c4 4.8 4 4.8 4 7l-3-1v-2h-2l1 3-3 1-1-6h4z"/><path fill="#b69b75" d="M266 264c2 2 2 2 2.3 5-.3 3-.3 3-2.3 5l-3-1 1-7h2z"/><path fill="#c2a481" d="m116 176 1 2h2l1-2 1 3-2 .4-2 .6-1 2-9-3v-1l6.2-.7c1.8-.1 1.8-.1 2.8-1.3"/><path fill="#8cb0a7" d="M402 100c3.1-.2 3.1-.2 6 0l1 2-1 2 5 1c-3.4 1.2-5.4.8-8.7-.4l-2.5-1-1.8-.6z"/><path fill="#c1a27f" d="m704 420 4 1c1.3 4.8 2.3 9 2 14-2.6-2.6-3-5-4.1-8.6l-1.1-3.6z"/><path fill="#dbb585" d="M205 317c5.4-.4 5.4-.4 8.4 1.5l1.6 1.5c-2.6 1.6-3.7 2-6.7 1.6l-2.3-.6zm10 1 3 1Z"/><path fill="#ad8e6c" d="m427 287 11 1v2l4 1c-5.8.4-9.9.2-15-3z"/><path fill="#b29475" d="m198 257 6 4.3q2.9 2.5 5 5.7c-4 0-4 0-6.6-2.4L200 262l-2-2z"/><path fill="#97b9aa" d="m405 216 2 1-1.4 2.4q-1.5 2.2-2.6 4.6h-6l1-2h2l.3-1.9c.7-2.1.7-2.1 2.6-3.4z"/><path fill="#e2c099" d="m154 84 2 2 2-1-.9 1.5c-1.5 3.4-2.2 6.9-3.1 10.5-2.3-3.5-2.3-4.9-2-9 1-2.4 1-2.4 2-4"/><path fill="#9e896f" d="M408 80v1l-6.9.6-3.8.4H394l-2-2c10.4-2.7 10.4-2.7 16 0"/><path fill="#b89d81" d="M265.2 725.8h2.4l2.5.1 1.9.1v1l5 1v2l-16-2c2-2 2-2 4.2-2.2"/><path fill="#e3c4a9" d="M120 647c4.7 1.6 8 4 12 7l-2 2v-2l-8-2v-2h-2z"/><path fill="#f9f0e2" d="M577 391c3.6 3.7 4.1 8 5 13h-2l-2-6-3 1c.9-5.7.9-5.7 2-8"/><path fill="#d7ba96" d="M644 387c-2 2-2 2-5.5 2.2h-4.1l-2.2-.1-5.2-.1c2.9-1.6 5.2-2.3 8.5-2.7l2.3-.2c2.3-.1 4 .2 6.2.9"/><path fill="#ebcaa8" d="M353 374h1v5c-5.9 2.6-11.7 2.2-18 2v-1c5.8-1.3 11-2.3 17-2z"/><path fill="#ceb088" d="M345 268c.7 1.8.7 1.8 1 4-1.3 2.3-1.3 2.3-3 4h-2l-1 2v-3l-3 1 2-4 4 1z"/><path fill="#e0c19d" d="M526 199h2l.4 2 .6 2 2 1 2 5c-2.4-.2-2.4-.2-5-1-2.2-2.9-2.2-5.5-2-9"/><path fill="#cfaf84" d="m483 198 5 2-1 3-2-1-2 3-4-1z"/><path fill="#bd9e76" d="M449 65c5.8.8 5.8.8 8 3l-2 2q-4-.2-8-1v-2h2z"/><path fill="#e3bf94" d="M295 29c3.3.6 5 1.5 7.3 3.9l1.5 1.5C305 36 305 36 305 39h-2v-2h-2v-2h-2z"/><path fill="#d2af89" d="m175 698 9 1v3h-4v2l-3-1c-1.2-2.6-1.2-2.6-2-5"/><path fill="#c1a586" d="M679 393c4.6-.3 7.4 0 11 3l1 5-4.9-2.9-2.7-1.6C681 395 681 395 679 393"/><path fill="#a1896c" d="M643 386h17v3h-18z"/><path fill="#8aa299" d="m454 174 3 1-4 13h-1c-.3-8.3-.3-8.3 2-12z"/><path fill="#88aea1" d="M198 142c2 3 2 3 1.5 5.5l-.9 2.7-.9 2.7-.7 2.1c-1.7-2.6-2.4-4-3-7l2-1z"/><path fill="#af9573" d="M182 37c2 2 2 2 3 4-1.2 1.5-1.2 1.5-3 3-2.7.2-2.7.2-5 0 1.3-2.9 2.7-4.9 5-7"/><path fill="#c0a384" d="M625 540c2.1 4.3 1 9.5 0 14-2-2-2-2-2.3-4v-4.8c.3-2.2.3-2.2 2.3-5.2"/><path fill="#dfc9aa" d="m556.2 351.4 2.8 1.6-1.8.3a10 10 0 0 0-5.2 3.7l-3-4c1.9-3.7 3.7-3.1 7.2-1.6"/><path fill="#d0b086" d="M504 330h10l-1 2 1 2-5 2v-2z"/><path fill="#b99d74" d="m246.4 312 1.6 1v1l-4.7.1-2.7.1a13 13 0 0 1-6.6-2.2 17 17 0 0 1 12.4 0"/><path fill="#dcba97" d="M357 281c-.3 3.2-1 4-3.4 6.3-2.6 1.7-2.6 1.7-4.6 1.7.3-3.2 1-4 3.4-6.2 2.6-1.8 2.6-1.8 4.6-1.8"/><path fill="#aa8f6e" d="m234 231 6 5c-3 2-3 2-5.7 1.6l-2.3-.6z"/><path fill="#e8c194" d="M154 141h3c1.7 2 1.7 2 3 4l-4 1-1 6-2-1z"/><path fill="#a6beb8" d="M433 113c2.4.2 3.7.7 5.4 2.4l3.6 4.6-2 2-3-3-2.2-2c-1.8-2-1.8-2-1.8-4"/><path fill="#bda079" d="M457 69c5.8.9 5.8.9 8 2l-2 4v-2l-7-1z"/><path fill="#b59779" d="m558 613 5 1-4 6-1-2-3 1c1.9-4.9 1.9-4.9 3-6"/><path fill="#a2886b" d="M644 536c-1 1.5-1 1.5-3 3-3.7.2-3.7.2-7 0l-1-3c7.6-1.1 7.6-1.1 11 0"/><path fill="#d4af87" d="M717 508h2l-1 9-5 1 1-5h2z"/><path fill="#b79678" d="M5 488c2 1 2 1 2.6 2.7q.6 4 .5 8v3L8 504H7a58 58 0 0 1-2-16"/><path fill="#f5d3af" d="m539 426 1 3c-2.3 2.5-2.3 2.5-5 5h-3l2-4h2v-2z"/><path fill="#af9274" d="m633 388 2 2-14 2v-3q5.8-1.4 12-1"/><path fill="#b8a07a" d="m53 349 2 1-5 8-2-1-3-1z"/><path fill="#bc9973" d="m351 283 1 2-2 1-1 3h2l1-2c-.3 1.9-.3 1.9-1 4l-3 2c-1.2-1.7-1.2-1.7-2-4 1.3-2.9 2.1-4.6 5-6"/><path fill="#957c5f" d="M512 266h12l2 4-6 1v-2l2-1-10-1z"/><path fill="#c2a57c" d="M530 264v3l4 1-8 1-2-4c3-1 3-1 6-1"/><path fill="#dcb892" d="M573 241h1c.3 7.4.3 7.4-2 11h-3l1.4-4.4.8-2.4c.8-2.2.8-2.2 1.8-4.2"/><path fill="#b49772" d="M94 158v2c-4.8 1-9.2 1-14 1 2.8-1.9 4.4-2.5 7.6-3.2l2.3-.5c2.1-.3 2.1-.3 4.1.7"/><path fill="#b49776" d="M501 109q3.7 4.5 6 10l-1 2c-3.2-1.6-4.6-4.8-6-8 .3-2.4.3-2.4 1-4"/><path fill="#7d988d" d="M202 91h1c.5 6.4.5 6.4-2 9.4l-2 1.6c-1-3-1-3-.2-5l1.1-2.2 1.2-2.2z"/><path fill="#cdaf8d" d="m464 93 3 1v2h3l1 3-2 2-7-6z"/><path fill="#bfa180" d="m256 29 10 2-2 3-9-2z"/><path fill="#e4bd92" d="M259 25c4.9 2.8 4.9 2.8 6 5-6.6.3-6.6.3-10-2z"/><path fill="#e6cdb0" d="M488 659h2c-.2 1.8-.2 1.8-1 4-2.3 1.8-2.3 1.8-5 3-2.3-.3-2.3-.3-4-1 5.8-4 5.8-4 8-4z"/><path fill="#b4997b" d="m587 570 2 2-5 10h-2l1.4-4.3.7-2.4c.9-2.3.9-2.3 2.9-5.3"/><path fill="#c29980" d="m330.4 540.3 1.6.7h-2l-2 6-2-1v-2l-4-1c5.4-3 5.4-3 8.4-2.7"/><path fill="#c49e81" d="M294 539c8.7 1.9 8.7 1.9 11 5-4.6.3-7.3-.2-11-3z"/><path fill="#d3c1ac" d="M575 372c2.6 2.6 2.5 4.5 3 8l-4 1-1-4 3-2h-3c1-2 1-2 2-3"/><path fill="#a88e6a" d="m232 312-2 4-11-1v-1l5.4-1 3-.6c2.6-.4 2.6-.4 4.6-.4"/><path fill="#c0a07b" d="M319 287c2.3 2.9 3.8 5.5 5 9h-4v-2h-2z"/><path fill="#d5af86" d="m441 271-1 3h-10v-2l4.4-1 2.4-.7c2.2-.3 2.2-.3 4.2.7"/><path fill="#e5be91" d="m161.3 255.7 2.4.1h2.4l1.9.2v3h-12c3-3 3-3 5.3-3.3"/><path fill="#b69974" d="M78 210c2 .8 2 .8 4 2l1 3 3 1-1 4h-2l-.2-1.7c-1-3-2.7-4.2-4.8-6.3z"/><path fill="#8cb2a6" d="m377 102 3.8-.1 2.2-.1c2 .2 2 .2 5 2.2-7.4 2.2-7.4 2.2-10.5 1.1L376 104z"/><path fill="#c3a886" d="M157 76c1 2.6 1.1 3.6 0 6.3l-1 1.7h-2l-1 4c-1-2-1-2-.5-4.1l.8-2.5.8-2.4c.9-2 .9-2 2.9-3"/><path fill="#d5ad82" d="M430 62c3.5.5 6.7.9 10 2v2h-8z"/><path fill="#c6aa87" d="M169 52c1 3 1 3-.1 5.5l-1.7 2.7-1.7 2.7L164 65h-2c1.6-4.8 4.3-8.8 7-13"/><path fill="#c3a780" d="M305 37c4.8 4.3 4.8 4.3 5 8l-2 4-1.5-4.3-.8-2.4C305 40 305 40 305 37"/><path fill="#c2a376" d="M274 16c3.6.4 3.6.4 7 1l-1 3h-8c0-2 0-2 2-4"/><path fill="#a2815e" d="m258 11 4.4.4 2.4.2c2.2.4 2.2.4 4.2 2.4-3 1.5-5.7 1-9 1v-2z"/><path fill="#ddc1a2" d="m204 712 4.9.3 2.7.2c2.4.5 2.4.5 4.4 3.5l-9-1v-2z"/><path fill="#c8956c" d="M334 624c1 2.7 1 4.1.4 7a15 15 0 0 1-6.4 7l1-4h2l.4-2.2a43 43 0 0 1 2.6-7.8"/><path fill="#c5a57e" d="m685 519 2 1v5h-7v-3c2.4-1.7 2.4-1.7 5-3"/><path fill="#e5b584" d="M187 483a35 35 0 0 1 6.7.6c2.4.4 4.2 1.2 6.3 2.4l-5.3.1-3 .1c-2.7-.2-2.7-.2-5.7-2.2z"/><path fill="#bba385" d="M157 332c-2.8 2.8-5.2 2.6-9 3v-2l-2-1c3.8-1.4 7-.7 11 0"/><path fill="#a9a28b" d="M292 266h2c.3 6 .3 6 0 8l-3 2c-1.2-6.6-1.2-6.6 1-10"/><path fill="#9c856a" d="m392 268 6 1v1l-14 1v-2c3.2-2 4.5-2.1 8-1"/><path fill="#d2ad81" d="M541 262c0 3 0 3-1.7 4.8-2.3 1.2-2.3 1.2-5 .4L532 266v-3l2.3.6c3 .4 4.1 0 6.7-1.6"/><path fill="#c6a481" d="m465 241 4 2v2c-2.6 2.3-3.5 3-7 3 1.9-4.7 1.9-4.7 3-7"/><path fill="#b89d79" d="m457 227 2 1-2 1.9c-2.2 1.9-2.2 1.9-2 4.1l-6-1q3.9-3.1 8-6"/><path fill="#d8b07a" d="m572 219 2 1v16h-1l-2-16z"/><path fill="#869e92" d="M202 166h2l2 5h2l1 6c-3-2.8-5.1-5.4-7-9z"/><path fill="#d5ad7d" d="M88 161v4h-8l1-3c2.5-1.2 4.3-1 7-1"/><path fill="#c6a47c" d="m491 126 1 2 2 1h-2c-.2 2.4-.2 2.4 0 5l2 2h-2l-1 3-1.1-4.8-.7-2.7c-.2-2.5-.2-2.5 1.8-5.5"/><path fill="#76948a" d="m377 103 2 3-8 1v-2l-2-1c5.8-2.1 5.8-2.1 8-1"/><path fill="#ba9970" d="m224 13 2 4c-1 1-1 1-4 1h-3l-1-3z"/><path fill="#b09479" d="M410 717h11c-3 1.5-5 2.4-8.2 3.1l-3.8.9-1-2h2z"/><path fill="#e6ceb4" d="M408 701c-3.4 2.3-4.7 2.2-8.7 2.1h-3l-2.3-.1a15 15 0 0 1 14-2"/><path fill="#bba287" d="m144 685 5 1v2l4 1v2c-3.4-1-6-2-9-4z"/><path fill="#cd9a72" d="M314.6 646h3.4c-4.3 2.9-7.1 3.1-12.2 3H300v-1l2.2-.2 2.7-.2 2.8-.3c3.4-.5 3-1.3 6.9-1.4"/><path fill="#bea281" d="M699 529h4l1 3-6 4z"/><path fill="#c4a076" d="m604 423 2 1v3h2l1-3 1 6h-2l-2 2c-1.5-3.4-2-5.2-2-9"/><path fill="#f9ddca" d="M556 369c2 .6 2 .6 4 2 .9 3 .9 3 1 6l-2 2c-3-6.6-3-6.6-3-10"/><path fill="#c8b189" d="m40 361 3 1c-1.3 2.5-1.3 2.5-3 5h-3c0-3 0-3 1.5-4.7z"/><path fill="#c8aa7f" d="M174 324h10v3h-9z"/><path fill="#a78c69" d="m205 317-1 3-4-1 1 4-6-1v-3l3.9-1 2.2-.6c1.9-.4 1.9-.4 3.9-.4"/><path fill="#e2c59f" d="m346 265 4 1-3 1-1 2-3 4-3-1z"/><path fill="#baac93" d="m306 256 4 3-1 2h-3l-2 3v-2l-2-1h2l.4-2c.6-2 .6-2 1.6-3"/><path fill="#bca17b" d="M378 250c7.8.8 7.8.8 10 3-3.8 1.5-6.3.4-10-1z"/><path fill="#d7b081" d="M176 247c5.8 1.9 5.8 1.9 8 3v2h-6v-2h-2z"/><path fill="#c0a27b" d="M226 245h2l2 5h-2l-1 3-3-3c1-3 1-3 2-5"/><path fill="#c19d7b" d="M103 243h8c-3 2-3 2-6 2v2h2l-1 2-6-2 1.5-1.4c1.6-1.4 1.6-1.4 1.5-2.6"/><path fill="#8da99b" d="M232 198h3l2 2 2 1 1 4c-3.4-1.2-3.4-1.2-7-3-1-2.2-1-2.2-1-4"/><path fill="#b89c73" d="m558 195 5 3-2 1 1 3h-2l-1-2h-4l-1-3 4 1z"/><path fill="#e0be93" d="M121 163c5 .5 8.6 1.6 13 4v1a19 19 0 0 1-10-2v-2z"/><path fill="#d9ba97" d="M155 153h2c2.4 7.4 2.4 7.4 1 11v-2h-2z"/><path fill="#c9aa84" d="M153 137h1c.3 7.5.3 7.5-2 12l-2-10h3z"/><path fill="#e6ceb1" d="M516 637c-1.2 3.7-1.7 4.8-5 7l-3-1 2.9-3 1.6-1.7c1.5-1.3 1.5-1.3 3.5-1.3"/><path fill="#e3c5ac" d="M104 632c3.3 1.1 3.8 1.7 5.7 4.6l1.3 1.9 1 1.5-5-1-1-3-2-1z"/><path fill="#bca083" d="M580 584c1 3 1 3 .2 4.8L577 594l-3-1 2-4h2z"/><path fill="#dfbf9a" d="m708 523 3 2-2.9 3-1.6 1.7C705 531 705 531 703 531c1.4-3 3-5.4 5-8"/><path fill="#b09271" d="M712 469h1l.4 2.8c.4 3.3.4 3.3 2.6 6.2l-1 3h-2v-3l-2-1z"/><path fill="#c6a078" d="M729 433c3.1 3.1 3 5.4 3 9.8v3.2c-2.2-1.8-3-2.6-3.3-5.5l.1-2.7v-2.7z"/><path fill="#e3c298" d="M701 410a22 22 0 0 1 6 9l-1 3v-2h-2c-3-6.6-3-6.6-3-10"/><path fill="#eacba2" d="M12 410c1.3 3.5.7 5.7-.4 9.3l-1 2.7-.6 2a14 14 0 0 1-.1-8.7l.5-2.4c.6-1.9.6-1.9 1.6-2.9"/><path fill="#e1c49a" d="M593 380c-1 2-1 2-3.3 2.9l-2.8.7-2.7.8-2.2.6v-2c3.9-2.2 6.6-3.4 11-3"/><path fill="#dcc097" d="m680 373 7.5 1.4c2.5.6 2.5.6 5.5 2.6l-1 2-12-5z"/><path fill="#cdb18d" d="M523 335c3.8 1.5 5.1 3.4 7 7-3-.6-5.4-1.6-8-3z"/><path fill="#b89b7a" d="M456 287v2l-10 1v-2c6.6-2.1 6.6-2.1 10-1"/><path fill="#b89e7c" d="m422 262 1 2 2 1c-7.5 1.3-7.5 1.3-12-1z"/><path fill="#e0bc93" d="M111 245c.7 2 .7 2 1 4h-5v-2h-2v-2c3-1 3-1 6 0"/><path fill="#c0a37d" d="M187 179c4.6 5.4 4.6 5.4 5 9l-1 2c-2-1-2-1-3-4l-1-3-1-2z"/><path fill="#e6c197" d="M150 130c3 3 3 3 3.2 6.2l-.2 2.8h-3z"/><path fill="#a78e6f" d="M477 83c3.7.3 4.8.8 7.3 3.6L486 89l-1 2h-2l-.9-2c-1-2.2-1-2.2-3.1-3v-2z"/><path fill="#ddbc94" d="M449 81c1.9.1 1.9.1 4 1 1.3 3 1.3 3 2 6l-5-1z"/><path fill="#809a92" d="m219 75 4 2-4.4 2-2.4 1.2-2.2.8-2-1z"/><path fill="#a0886d" d="m284 41 2 1v2h2v2h2l-1 3-7-6z"/><path fill="#c2a283" d="m481 682 2 1h2v2l2 2-4 2-2-1z"/><path fill="#e6ccb7" d="m146 664 12 6c-2.7 1.3-3.7.7-6.6-.2l-2.4-.7-2-1.1z"/><path fill="#e6c7a0" d="M50 597h3l3 8c-3.2-1.4-4-2-6-5z"/><path fill="#a88c72" d="M712 455h3v15h-1v-11h-2z"/><path fill="#e5b38a" d="m731 453 2 1-.5 1.6a58 58 0 0 0-1.3 11.1l-.2 2.3h-1v-15z"/><path fill="#e5c4a1" d="m690 397 3.4 2.8 1.9 1.6c1.7 1.6 1.7 1.6 3.7 4.6a15 15 0 0 1-9-7z"/><path fill="#e2d2bc" d="m563 357 3.5 2.8 2 1.6c1.5 1.6 1.5 1.6 1.5 4.6-3.5-1.7-4.8-2.5-6.3-6.2z"/><path fill="#e8ca9c" d="m48 355 1 2-1 2h-2v2l-3 1-2-2c2.1-2.3 4.1-3.7 7-5"/><path fill="#a68c68" d="M218 317c-3.6 2.4-5.7 2.2-10 2v-3c4-1.2 6.2-.8 10 1"/><path fill="#8e795b" d="m421 309 10 1-1 3c-4.2-.6-5.4-1.3-9-4"/><path fill="#bca07d" d="m200 285 3 1v2l4 1-2 2v-2h-2l-1 2-3-3z"/><path fill="#ac9478" d="M190 274a23 23 0 0 1 5 3l1 3c-3.2-.4-4.6-.6-6.8-3l-1.2-2z"/><path fill="#b09777" d="M376 252c-5.3 4-5.3 4-8.9 3.8l-2.1-.8c2.8-2.8 7.2-5 11-3"/><path fill="#c4a077" d="M224 225h2v2l4-1 2 3a36 36 0 0 1-8 1z"/><path fill="#caac85" d="M477 207h1c.4 5.5.4 5.5-1.4 7.9-1.6 1.1-1.6 1.1-2.6 1.1-.3-3.1-.2-4.6 1.4-7.3z"/><path fill="#c5a37b" d="m156 147 3 3-1 3h-3l-1 3c-.7-2.2-.7-2.2-1-5 1.4-2.3 1.4-2.3 3-4"/><path fill="#dfbe97" d="M470 99a33 33 0 0 1 8 8c-3 0-3 0-5.7-2.3C470 102 470 102 470 99"/><path fill="#d9b899" d="m472 691 1 4c-3.2 2.2-4.3 2.2-8 2l3-1v-3h4z"/><path fill="#e6ceb7" d="m437 688 2 1-3 1c-1.2 2-1.2 2-2 4l-4-2h2v-2z"/><path fill="#cfb599" d="M127 674c3.8.5 5.5 2.2 8 5-4.2 0-5-.3-8-3z"/><path fill="#e4c7a0" d="M85 639c3.7 1.2 4.7 3 7 6l-2 2c-2.5-2.3-2.5-2.3-5-5z"/><path fill="#cfa87e" d="M36 567h2a9 9 0 0 1 1 4c-2 2.8-2 2.8-4 5-1-2.8-1-3.9 0-6.7z"/><path fill="#e1c3a4" d="M41 544c2.2 2.6 3.4 4.6 4 8l-3 1c-1-1-1-1-1.1-2.8z"/><path fill="#e9c6a5" d="m368 426-2 1c-2 .8-2 .8-3 2h-11v-1a58 58 0 0 1 16-2"/><path fill="#dcb281" d="M175 327h10v1a25 25 0 0 1-11 2z"/><path fill="#af946f" d="m443 312 8 1v3l-7-1z"/><path fill="#c5aa84" d="M314 278c3 2.5 4 5.2 5 9-3-1-3-1-4.7-3.4-1.3-2.6-1.3-2.6-.3-5.6"/><path fill="#d0b18a" d="m378.8 251.8 2.2 1.2a29 29 0 0 1-9 3l-1-2c4.3-3.2 4.3-3.2 7.8-2.2"/><path fill="#ae936e" d="M411 246v2l-7 1v-2l-2-1c6.8-1.1 6.8-1.1 9 0"/><path fill="#9e846b" d="M544 210v2h-8l-1-2c3-1.5 5.7-.5 9 0"/><path fill="#ab916b" d="m543 190 10 2v1h-7l-1 2z"/><path fill="#c8a67b" d="m490 180 1 4h4l-2 4-4-2z"/><path fill="#a6c6b2" d="m209 175 3 1v2h2l2 4c-3.2-.6-5-1.4-7-4z"/><path fill="#c7ab89" d="m447 81 4 2-1 4-6-2z"/><path fill="#a2896b" d="M231 33a30 30 0 0 1-10 4l-1-2c4-3 6.2-3.2 11-2"/><path fill="#bb9870" d="m215 16 2 1-1 2 4 1-1 2h-3l-1-2-4-2z"/><path fill="#e3c5a3" d="m224 699 12 2c-5.2 2.6-6.6 1.6-12 0z"/><path fill="#bfa58a" d="M99 654c3.9.6 6 2.5 9 5l-1 3-4-3.4-2.2-2L99 655z"/><path fill="#e7ceb4" d="m522 629 2 1c-3.4 5.8-3.4 5.8-6.2 6.9l-1.8.1 2-4h2z"/><path fill="#e2bfa0" d="m75 602 1 2 2 .4 2 .6 1 3-5-2v2h-2z"/><path fill="#b9a283" d="m573 594 3 2-4 6-2-4 1-2h2z"/><path fill="#b99e7c" d="m670 546 6 2a16 16 0 0 1-8 3z"/><path fill="#b19771" d="M603 530h2l-3 11-2-4c1.4-3.7 1.4-3.7 3-7"/><path fill="#a48b6a" d="M85 335c-2 2-2 2-4.6 2.1L78 337v2l-3 1-2-2 4.9-2 2.7-1.2c2.4-.8 2.4-.8 4.4.2"/><path fill="#ddb585" d="m313 282 4 4v2h-2l-1 2-2-7z"/><path fill="#e2bf98" d="M193 280c2.4-.2 2.4-.2 5 0 2 3 2 3 2 6-3.4-1.4-5-3-7-6"/><path fill="#cdaa85" d="m254 273 6 4-1 2-7-1 2-1z"/><path fill="#d2ac81" d="m126 234-3 1v2l-3-1v-2l-3-1c3.6-1.3 5.6-.6 9 1"/><path fill="#e9cda1" d="M561 199c3.3.6 4.8 1.5 7 4l-1 3-6-5z"/><path fill="#ccac88" d="M529 193c1.6 3.2 1 6.4 1 10h-2v-4l-2-1z"/><path fill="#b79974" d="M194 189q4.4 4.2 8 9h-3v-2h-2c-2.3-2.6-3-3.5-3-7"/><path fill="#b0936f" d="m139 174 4 1 1 6-1-2h-4l-1-4z"/><path fill="#e6c7a0" d="m71 167 1 2-8 6c1.2-4.7 1.2-4.7 4-7z"/><path fill="#8fb4a6" d="M321 116h3l2 6h-2v-2l-4 1z"/><path fill="#8eada1" d="M357 112c-.4 2.9-.8 3.8-3 5.8l-2 1.2c-.2-2.4-.2-2.4 0-5 3-2 3-2 5-2"/><path fill="#b39a7f" d="M300.6 61h2.4v2l5 1v1c-7.5.4-7.5.4-10-1.5l-1-1.5c1-1 1-1 3.6-1"/><path fill="#8e775b" d="m194 51 3 1-7 6-1-3c2.3-2 2.3-2 5-4"/><path fill="#e0bd9e" d="M253 723c6.5.6 6.5.6 9 2.6l1 1.4c-3.5-.5-6.7-.9-10-2z"/><path fill="#e6caa7" d="M163 695a25 25 0 0 1 10 5c-3.7-.5-6.7-1.1-10-3z"/><path fill="#f5f5f3" d="M264 650c3.4 1.2 5.6 2.3 8 5h-6z"/><path fill="#dcb387" d="M67 616c4.9 3.6 4.9 3.6 6 7-1.9-.3-1.9-.3-4-1-2-3-2-3-2-6"/><path fill="#eee1d6" d="m394 613 2 3-2 4h-3z"/><path fill="#e7cbb2" d="m553 592 1 4-5 4c0-3 0-3 1-5h2z"/><path fill="#e9cfb6" d="m559 582 1 2-2 3c-.2 2.6-.2 2.6 0 5h-4a25 25 0 0 1 5-10"/><path fill="#e4c5a7" d="M58 576c2 1.8 2 1.8 4 4-.2 2.3-.2 2.3-1 4l-3-1z"/><path fill="#e5c29f" d="M583 531q1.5 4.3 1 9l-3 2 .4-4.4.3-2.4c.3-2.2.3-2.2 1.3-4.2"/><path fill="#dcb187" d="m20 535 3 1v3l-4 2-1-4h2z"/><path fill="#c6a278" d="M723 417h3l1 4h-2l-1 5h-1c-.9-6.2-.9-6.2-1-8z"/><path fill="#a88f6e" d="m610 374-4 1v2c-3.3 1.1-4.7.8-8 0 8.7-4.7 8.7-4.7 12-3"/><path fill="#a28868" d="m464 316 12 2v1h-12z"/><path fill="#e7c096" d="M168 260h6l2 2-9 1z"/><path fill="#e5c097" d="m143 251 3 1v2l2 2h-7z"/><path fill="#d7ac7f" d="M248 249c2 0 2 0 3.6 1.5l1.4 1.5-2 4-3-1z"/><path fill="#e6be93" d="M247 246c3.4 1.4 5.6 3.2 8 6v2h-2v-2l-3-1c-1.7-1.4-1.7-1.4-3-3z"/><path fill="#95b3a5" d="M362 230h2v2h6l-1 2h-8z"/><path fill="#9b8363" d="m479 230 4 3-5 4v-6z"/><path fill="#98b2a5" d="m384 225 5 1-1 3h-6v-2h2z"/><path fill="#94a8a2" d="M421 213c2.8.3 2.8.3 5 1a18 18 0 0 1-9 3c1.7-2 1.7-2 4-4"/><path fill="#e0be92" d="m482 204 1 3-3 3h-2l1-5z"/><path fill="#b39974" d="M55 201h2c1.8 2.8 2 3.9 1.6 7.3L58 211c-3-3-2.6-5.8-3-10"/><path fill="#e4c095" d="M530 193h2c2.1 4.6 2.1 4.6 1 8l-2-2-2-1z"/><path fill="#e5c098" d="m125 184 6 1 1 3-6-1z"/><path fill="#c9a37b" d="m180 167 2 4h-2l2 5-3-1c-1.2-3-1.2-3-2-6h2z"/><path fill="#d1b08b" d="M180 171h3l3 6c-2.9-.6-3.9-.9-6-3z"/><path fill="#b29572" d="M493 166h2l1 5h-2l-1 5c-1.2-3.6-.7-6.3 0-10"/><path fill="#d6ad7f" d="m113 162 8 1-1 2h-2v2l-3-1v-3z"/><path fill="#dab281" d="M498 111h2c1.4 2.4 2 3.5 1.6 6.3l-.6 1.7c-2-1.7-2-1.7-4-4 .3-2.2.3-2.2 1-4"/><path fill="#d8b491" d="M304 60c2 .3 2 .3 4 1l1 3h-7z"/><path fill="#c5a786" d="M289 48h4c.6 2.4.6 2.4 1 5l-2 2c-3-4.7-3-4.7-3-7"/><path fill="#a18a75" d="m247.8 722.9 3.2 1.1v2l-11-2c4-2 4-2 7.8-1.1"/><path fill="#d6ba9b" d="M196 709h6l2 2-1 2-6-2z"/><path fill="#af9479" d="M497 673h6v3l-4 2z"/><path fill="#e4cab2" d="m547 600 1 4-5 4c1.8-5.7 1.8-5.7 4-8"/><path fill="#d7a77d" d="m333.2 557.4 1.8.6-6 5-1-4c3-2 3-2 5.2-1.6"/><path fill="#ba957d" d="m255 544 1 2-7 6-2-1z"/><path fill="#dfbd92" d="M708 492c1 2.6 1.1 3.6 0 6.3l-1 1.7-2-1c.8-4.7.8-4.7 3-7"/><path fill="#b89977" d="m729 488 2 1-3 7-2-1 1-5h2z"/><path fill="#a88c6c" d="m606 393 7 1a16 16 0 0 1-8 3z"/><path fill="#dac097" d="M617 373c-3.5 2-7.1 3-11 4v-2c3.6-2.3 6.8-2.2 11-2"/><path fill="#eadbc7" d="M571 366c2 1.8 2 1.8 4 4-.2 2.3-.2 2.3-1 4l-2-1z"/><path fill="#977b59" d="m343.1 290.9 2.9.1 1 3-9-1c2-2 2-2 5.1-2.1"/><path fill="#bc9f7d" d="m165 258-2 4-7-2c3.1-1.9 5.4-2.2 9-2"/><path fill="#e4c297" d="M552 249v2l-2 1v3h-3l-1 2c.4-2.8.7-4.6 2.4-6.8 1.6-1.2 1.6-1.2 3.6-1.2"/><path fill="#96b8ab" d="M374 226h6c-2 3-2 3-3.9 3.8-2.6.2-3.9-.5-6.1-1.8h4z"/><path fill="#d0ab82" d="M71 225h2l2 5-3-1-2 2-2-3h2z"/><path fill="#e5c396" d="m471 215 2 1-2 2.4c-2 2.4-2 2.4-3 4.6l-3-1z"/><path fill="#b8a07e" d="M56 186a15 15 0 0 1 2.1 9.3v2.7l-.1 2h-1v-8h-2z"/><path fill="#8ea49a" d="M450 191a16 16 0 0 1-5 8c-.4-4.5-.4-4.5 1.4-6.8 1.6-1.2 1.6-1.2 3.6-1.2"/><path fill="#c5a07e" d="m134 185 2 1v2l2 1h-9l3-1v-2z"/><path fill="#e0c19e" d="m117 180 6 1 1 3c-4.7-.9-4.7-.9-7-2z"/><path fill="#af9371" d="M512 160c1.5 1.1 1.5 1.1 3 3 .2 3.2.2 3.2 0 6l-3-1z"/><path fill="#e2bf96" d="M492 136h3v7h-2z"/><path fill="#8aa49d" d="m317 104 4 5-1 2-3-1-1-5z"/><path fill="#a3c3b8" d="M204 89h2c.2 2.9.2 2.9 0 6l-3 2v-7z"/><path fill="#6c827d" d="m302 86 6 5-3 2-4-5z"/><path fill="#bc9e77" d="M370 67c1 2 1 2 .3 4.6C369 74 369 74 366 75l1-2.4 1-2.6-1-2z"/><path fill="#e7c89c" d="M161 65h2l-3 9-2-1c1.9-5.7 1.9-5.7 3-8"/><path fill="#ab8d70" d="m209 43-7 4-1-3c3-1.9 4.6-2.2 8-1"/><path fill="#e5c8a7" d="m216 696 8 2c-3 2-3 2-6 2v-2h-2z"/><path fill="#d6b393" d="M485 681h2l3 4-6 1z"/><path fill="#bc7d4f" d="m235 574 4 2-3 2c-.7 3-.7 3-1 6h-1c-.1-6.6-.1-6.6 1-10"/><path fill="#c59f79" d="m723 496 5 1-2 6-1-3h-2z"/><path fill="#f7ece0" d="m509 447 2 1c-2 2.8-3.1 3-6.7 3.7l-3.3.3c1.6-3.3 4.7-3.8 8-5"/><path fill="#ebc599" d="m724 419 1 2h2v7c-2.1-2.4-3-3.5-3.2-6.7z"/><path fill="#f8e8d6" d="M37 400h2v8l-1-4h-3z"/><path fill="#c2a182" d="M660 387h7l1 3-8-1z"/><path fill="#c5ac87" d="m26 379 2 2-4 6h-2c1.1-3 2.2-5.3 4-8"/><path fill="#c9aa80" d="M672 372h8v2l2 1c-6.6-.7-6.6-.7-10-3"/><path fill="#be9972" d="m300 287 2 1v4h-2l-1 2-2-5h2z"/><path fill="#c5b192" d="m298 266 2 1-1 3h-3v2h-2c.3-1.9.3-1.9 1-4z"/><path fill="#e5c092" d="M180 248c3.7.5 5.8.9 9 3v2a29 29 0 0 1-9-5"/><path fill="#8d765d" d="m240 237 6 5-4 1v-2h-2z"/><path fill="#758c83" d="M358 235v2l-8 2 1-3c2.5-1 4.3-1 7-1"/><path fill="#bf9e77" d="m480 225 4 1 1 5h-3c-2-3-2-3-2-6"/><path fill="#c49f7d" d="m217 214 6 5-4 1c-2-3-2-3-2-6"/><path fill="#e9be9a" d="m169 184 3 1 1 5h-3z"/><path fill="#cdaa7a" d="m139 171 2 2-1 3v-2l-2.4.6-2.6.4-2-2c3.8-1.1 3.8-1.1 6 0z"/><path fill="#648079" d="M457 161h1v9h-3z"/><path fill="#96b8aa" d="m326 136 2 1v2h2l-1 5h-2v-6l-2-1z"/><path fill="#a3c5b9" d="M322 120h2v2h2v6h-2z"/><path fill="#c6a684" d="M151 90c2 4.1 2.3 4.9 1 9l-2 1z"/><path fill="#b89a7a" d="M394 81v2h-9c3-3 5-3.4 9-2"/><path fill="#deb98d" d="m177 72 2 3-3 5h-2v-3h2z"/><path fill="#a28667" d="m427 59 10 1v1l-10 1z"/><path fill="#a68d6f" d="m217 35 1 3-6 3c.3-1.9.3-1.9 1-4 2-1.2 2-1.2 4-2"/></svg>
